<?xml version="1.0" standalone="no"?>
<!DOCTYPE svg PUBLIC "-//W3C//DTD SVG 1.1//EN" "http://www.w3.org/Graphics/SVG/1.1/DTD/svg11.dtd" >
<svg>
<metadata>
Created by FontForge 20120731 at Mon Oct 14 15:56:48 2019
 By www
More Services
</metadata>
<defs>
<font id="KrutiDev010" horiz-adv-x="768" >
  <font-face 
    font-family="Kruti Dev 010"
    font-weight="400"
    font-stretch="normal"
    units-per-em="1000"
    panose-1="0 0 0 0 0 0 0 0 0 0"
    ascent="800"
    descent="-200"
    x-height="213"
    cap-height="516"
    bbox="-526 -248.1 826 801"
    underline-thickness="20"
    underline-position="-123"
    unicode-range="U+0020-2122"
  />
<missing-glyph horiz-adv-x="500" 
d="M63 0v801h375v-801h-375zM125 63h250v676h-250v-676z" />
    <glyph glyph-name=".notdef" horiz-adv-x="500" 
d="M63 0v801h375v-801h-375zM125 63h250v676h-250v-676z" />
    <glyph glyph-name=".null" horiz-adv-x="0" 
 />
    <glyph glyph-name="nonmarkingreturn" horiz-adv-x="379" 
 />
    <glyph glyph-name="space" unicode=" " horiz-adv-x="379" 
 />
    <glyph glyph-name="exclam" unicode="!" horiz-adv-x="300" 
d="M215 176h-45l-8 494h61zM164 0v61h63v-61h-63z" />
    <glyph glyph-name="quotedbl" unicode="&#x22;" horiz-adv-x="229" 
d="M230 146q-57 0 -102 35q-48 35 -48 95v199h-80v41h234v-41h-93l183 -190v-101q-34 -38 -94 -38zM133 434v-159q0 -42 26 -62q13 -10 30 -16.5t35 -6.5l27 3l27 9l23 15l17 20z" />
    <glyph glyph-name="numbersign" unicode="#" horiz-adv-x="541" 
d="M289 475v-125l28 15l34 12q12 3 32 5q49 0 83 -36t34 -81q0 -27 -11 -57q-12 -34 -31 -58l-18 -23l-24 -26l-37 34l20 19l15 17q13 15 26 48q9 23 9 50q0 34 -20 54q-21 17 -52 17q-33 0 -49 -9q-12 -3 -22 -11l-19 -16q-1 -5 -2 -6l-1 -5l-2 -5l-2 -3q-7 -11 -19 -18
l-27 -12l-13 -3l-15 -1q-5 0 -14 -2h-10l6 -12l19 -28l24 -36l23 -30l27 -34l76 -85l-43 -28l-26 27l-35 42l-46 57l-43 61l-49 72l-35 59l-10 19l-9 20l43 22l37 -64l8 -9l14 -8l16 -6l16 -2q23 2 37 22l3 15l1 26v126h-236v41h549v-41h-260z" />
    <glyph glyph-name="dollar" unicode="$" horiz-adv-x="553" 
d="M293 234v-234h-43v234h-236v43h236v239h43v-239h238v-43h-238z" />
    <glyph glyph-name="percent" unicode="%" horiz-adv-x="168" 
d="M51 367v67h70v-67h-70zM51 80v68h70v-68h-70z" />
    <glyph glyph-name="ampersand" unicode="&#x26;" horiz-adv-x="553" 
d="M14 234v43h513v-43h-513z" />
    <glyph glyph-name="quotesingle" unicode="'" horiz-adv-x="371" 
d="M297 475q14 -14 21 -27l16 -29l9 -31l4 -32q0 -53 -32 -101.5t-80 -69.5q-33 -14 -71 -14l166 -138l-35 -35l-240 203l35 35l33 -27l6 -2h6l26 1q30 4 56 18l31 21l24 25l16 27l5 21l2 29l-15 -13l-12 -9q-16 -12 -34 -18q-9 -3 -31 -5q-48 0 -80 31q-17 15 -26.5 34.5
t-9.5 40.5q0 32 28 64l-115 1v41h371v-41h-74zM280 422q-3 10 -8 16q-25 38 -67 38q-17 0 -27 -5q-23 -6 -33 -33l-4 -23q0 -30 19 -49t49 -19q34 0 61 27l8 11l11 16z" />
    <glyph glyph-name="parenleft" unicode="(" horiz-adv-x="180" 
d="M82 264v58h64v-58h-64zM78 -94h-45l45 151h67z" />
    <glyph glyph-name="parenright" unicode=")" horiz-adv-x="625" 
d="M523 475v-137h-195q-14 0 -27.5 -4.5t-22 -12t-14.5 -23.5l-4 -31q0 -78 89 -114q27 -8 55 -8l11 1l15 2l12 2l5 1l-1 9q0 9 5 18q15 55 55 55q11 0 19 -3t14 -10l8 -16q3 -8 3 -19q0 -43 -33 -64q-6 -3 -21 -5l4 -18l3 -12l7 -29l8 -25l43 -114h-55l-27 86
q-4 -11 -20 -19l-43 -21l-42 -12q-17 -5 -42 -5q-67 0 -102 52l-10 20l-9 31l-51 4l-35 7q-40 8 -65 38q-21 25 -21 64q0 33 21 65q10 12 26.5 19.5t32.5 7.5q18 0 29 -3.5t25 -14.5l14 -16l6 -5l-27 -25l-8 6l-5 5l-16 9l-16 3l-17 -3l-11 -8l-7 -14l-4 -16q0 -24 15 -42
q18 -22 48 -30l50 -14q4 -1 9 -1h4q8 0 11 3l3 6l3 5l7 11q3 5 8 10l8 7l11 8l10 6l8 3l-21 17l-13 16q-25 31 -32 64q-2 10 -2 25q0 56 28.5 82.5t71.5 26.5l162 1v98h-471v41h629v-41h-106zM455 111l-7 -2l-16 -1q-6 0 -17 -2h-11l-21 1l-36 7l-15 4l-22 -7l-15 -6
q-37 -20 -37 -55q0 -26 22 -46l25 -11q10 -3 31 -5q16 0 37 6q30 9 45 17l37 21l16 14z" />
    <glyph glyph-name="asterisk" unicode="*" horiz-adv-x="203" 
d="M94 449h-43l43 143h58z" />
    <glyph glyph-name="plus" unicode="+" horiz-adv-x="2" 
d="M-258 -113v56h59v-56h-59z" />
    <glyph glyph-name="comma" unicode="," horiz-adv-x="445" 
d="M379 475v-188q0 -30 -21 -51q-9 -11 -23 -19l-26 -11l-38 30q21 0 38 19l12 21q3 7 5 22v177h-189v-246l240 -229q6 -9 9 -18l3 -21q0 -35 -38 -56l-16 -4l-22 -6l-45 44l7 -2l16 -1l6 1h6l5 2l6 1q7 2 9 4l9 7l1 3l2 3l2 8q0 16 -15 27l-3 3l-5 3l-232 219v258h-82v41
h447v-41h-68z" />
    <glyph glyph-name="hyphen" unicode="-" horiz-adv-x="168" 
d="M51 0v66h70v-66h-70z" />
    <glyph glyph-name="hyphen" unicode="&#x2010;" horiz-adv-x="168" 
d="M51 0v66h70v-66h-70z" />
    <glyph glyph-name="period" unicode="." horiz-adv-x="361" 
d="M330 475v-174q0 -30 -8 -52q-19 -51 -61 -66q-23 -8 -50 -8q-31 0 -49 8q-49 21 -67 66q-9 21 -9 47v179h-86v41h369v-41h-39zM277 475h-138v-178q0 -35 17 -58q18 -27 51 -27q36 0 55 28q6 9 11 26l4 34v175z" />
    <glyph glyph-name="slash" unicode="/" horiz-adv-x="273" 
d="M248 475v41h30v-41h-30zM341 158l-36 -25q-58 -40 -131 -40q-48 0 -88.5 30.5t-40.5 76.5q0 34 25 65l10 10l16 13q-32 16 -61 52l-20 36q-7 21 -7 37q0 45 28 73t73 28q63 0 85 -48q7 -15 7 -30v-30h-45v31q0 40 -45 40q-22 0 -37 -19l-10 -20l-3 -23q0 -39 21 -65
q14 -19 29 -30q11 -10 24 -10l34 10l39 4l18 -1l20 -2l22 -38l-67 -3q-28 -1 -39 -5q-62 -14 -62 -73q0 -44 53 -64l31 -4q59 0 123 47l22 20l26 28v-53q0 -8 -14 -18z" />
    <glyph glyph-name="zero" unicode="0" horiz-adv-x="389" 
d="M33 325q6 43 14 64l10 25l13 22l14 20l17 17q39 29 91 29q26 0 39 -5q18 -2 33.5 -10.5t26.5 -20.5l23 -27l17 -37l14 -40l8 -50l3 -77q0 -41 -5 -73q-15 -94 -66 -140q-32 -30 -93 -30q-117 0 -150 131q-13 52 -13 123v35q0 14 4 44zM120 84q14 -21 33.5 -32t38.5 -11
q21 0 38 9t33 32q30 43 30 164q0 59 -8 102q-12 67 -54 93q-18 10 -39 10q-43 0 -67 -34.5t-31 -111.5q-2 -24 -2 -59q0 -122 28 -162z" />
    <glyph glyph-name="one" unicode="1" horiz-adv-x="389" 
d="M199 0v392q-13 -14 -25 -22l-50 -32l-16 -8l-16 -7l-16 -6v60q22 8 47 24l41 33q17 14 34 34l23 34l40 1v-503h-62z" />
    <glyph glyph-name="two" unicode="2" horiz-adv-x="389" 
d="M352 0h-331q0 14 2 21l6 21q8 27 40 66l15 18l17 17l48 41q25 21 66 58l43 46q21 27 28 57q2 8 2 19q0 33 -25 60t-69 27q-69 0 -91 -59q-7 -18 -7 -42l-63 8q7 69 48 106.5t114 37.5q70 0 113 -38q46 -42 43 -101l-1 -17l-1 -13q-1 -7 -4 -13l-5 -14l-8 -16l-10 -16
l-12 -17l-12 -14l-40 -41l-54 -48l-46 -38l-26 -25l-26 -32h246v-59z" />
    <glyph glyph-name="three" unicode="3" horiz-adv-x="389" 
d="M91 141q5 -31 16 -51q13 -28 48 -44q18 -5 34 -5q44 0 73.5 30.5t29.5 73.5q0 20 -7.5 40.5t-19.5 29.5l-16 12l-16 9l-18 5l-21 2q-12 0 -21 -2l-23 -5l7 55l10 -1h19q12 3 18 4q44 17 57 43q8 15 8 36q0 16 -6 31q-13 47 -75 47q-39 0 -61 -22q-20 -17 -30 -67l-61 11
q10 60 50.5 94.5t99.5 34.5q24 0 39 -5q35 -4 66 -32q16 -16 29 -39q7 -14 12 -37q1 -5 1 -17q0 -17 -5 -31q-5 -25 -35 -52q-14 -10 -29 -18q24 -7 39 -17q55 -29 55 -107q0 -67 -47.5 -111.5t-121.5 -44.5q-84 0 -128 58q-27 35 -32 82z" />
    <glyph glyph-name="four" unicode="4" horiz-adv-x="389" 
d="M226 120h-217v56l228 325h51v-325h68v-56h-68v-120h-62v120zM226 402l-157 -226h157v226z" />
    <glyph glyph-name="five" unicode="5" horiz-adv-x="389" 
d="M94 136q9 -72 62 -89q16 -6 34 -6q38 0 75 33q31 36 31 89q0 27 -8 46q-9 31 -37.5 49.5t-61.5 18.5h-12q-23 0 -42 -14l-11 -8l-10 -7l-9 -9l-7 -10l-58 8l48 257h249v-59h-199l-27 -134l22 12l23 10l23 6l26 2q30 2 66 -12q55 -23 79 -84q11 -31 11 -66q0 -70 -40 -118
q-49 -59 -131 -59q-68 0 -111.5 37t-49.5 102z" />
    <glyph glyph-name="six" unicode="6" horiz-adv-x="389" 
d="M287 374l-7 23l-7 15l-9 13q-11 11 -28 18.5t-34 7.5q-46 0 -78 -42q-4 -7 -7 -12q-7 -13 -12 -24l-8 -23l-5 -27l-4 -32l-1 -34q22 35 53 50l34 12q20 5 35 5q47 0 83.5 -27t53.5 -72q11 -29 11 -64q0 -23 -5 -46q-10 -46 -40 -77q-14 -14 -31 -26q-38 -20 -81 -20
q-77 0 -125 54q-36 41 -45 125q-3 29 -3 62q0 146 53 212q46 57 126 57q31 0 57 -9q56 -20 78 -80q5 -15 8 -35zM98 144l2 -14l4 -15l7 -15l15 -24l21 -19l25 -12l27 -4q77 0 93 90q2 11 2 27q0 54 -28 83t-69 29q-23 0 -39 -8q-47 -18 -59 -78q-3 -14 -2 -23z" />
    <glyph glyph-name="seven" unicode="7" horiz-adv-x="389" 
d="M33 495h325v-48l-24 -28l-23 -31l-24 -36l-24 -42l-24 -44l-19 -42l-8 -21l-8 -20l-7 -21l-17 -60l-7 -35l-5 -34l-1 -33h-64q0 34 5 62l7 38q10 54 37 122q18 46 38 81l21 37l21 34l22 32l25 28l-246 1v60z" />
    <glyph glyph-name="eight" unicode="8" horiz-adv-x="389" 
d="M67 311q-9 13 -15 29l-4 33q0 19 2 26l7 23l12 22l18 21q41 37 105 37q67 0 106.5 -37.5t39.5 -93.5q0 -21 -5 -32q-3 -20 -22 -39t-47 -29q24 -6 40 -20q33 -21 47 -64q7 -22 7 -45q0 -34 -11 -61q-24 -58 -86 -78q-33 -11 -68 -11q-77 0 -117 41q-22 22 -35 51.5
t-12 59.5l1 24q1 13 4 21l3 9l5 10l5 9l6 9q19 28 71 45q-38 11 -57 40zM116 342q16 -34 42 -42q19 -6 36 -6q35 0 58 23q8 8 17 24q6 14 6 30q0 31 -24 57q-9 8 -28 17q-13 6 -30 6q-35 0 -59 -23q-19 -18 -23 -53q0 -19 5 -33zM95 118l9 -25l15 -23l21 -16l25 -10l29 -3
q45 0 73 28.5t28 72.5q0 23 -8 40q-12 37 -56 55q-19 7 -39 7q-23 0 -40 -8q-38 -12 -53 -54q-7 -20 -7 -38z" />
    <glyph glyph-name="nine" unicode="9" horiz-adv-x="389" 
d="M97 121q3 -22 11 -38q9 -24 41 -38l32 -4l27 3q13 3 23 11l19 15q9 7 15 18l6 11l6 14l5 15l6 19l7 37l2 38v14q-26 -44 -84 -63l-36 -4q-61 0 -104.5 43.5t-43.5 120.5q0 40 11 68q18 46 58 73.5t89 27.5q13 0 24 -2q8 -1 21.5 -4.5t21.5 -7.5l22 -12q16 -9 35 -32
q32 -40 42 -103q5 -37 5 -81v-12q0 -79 -21 -141q-19 -56 -59.5 -85.5t-98.5 -29.5q-34 0 -54 8q-25 6 -42 23q-33 27 -45 92zM232 443q-19 8 -38 8q-20 0 -40 -8q-34 -15 -55 -65q-7 -23 -7 -47q0 -49 28 -77q14 -15 34 -23t38 -8q71 0 91 67q7 23 7 46q0 81 -58 107z" />
    <glyph glyph-name="colon" unicode=":" horiz-adv-x="637" 
d="M299 475v-125h121l28 11l28 4q82 0 118 -100q10 -30 10 -57q0 -88 -38 -155l-8 -14l-11 -15l-43 27l17 24l12 21q21 36 28 83q2 12 2 27q0 43 -24 75t-64 32q-19 0 -27 -5q-22 -4 -32 -31l-4 -24q0 -36 22 -56l9 -8l14 -8l-27 -40q-27 12 -44 43q-9 17 -13 33l-4 35l3 28
l9 26l-92 1l-2 -8l-2 -5q-10 -25 -53 -41l-11 -2l-15 -1h-15l-5 -1h-4l6 -12l19 -28l24 -36l23 -30l27 -34l76 -85l-43 -28l-26 27l-35 42l-46 57l-43 61l-49 72l-35 59l-10 19l-9 20l43 22l37 -64q16 -19 50 -23q24 0 39 15q8 8 12 19l4 27v126h-246v41h635v-41h-336z" />
    <glyph glyph-name="semicolon" unicode=";" horiz-adv-x="504" 
d="M434 475v-475h-53v154q-53 -45 -122 -45q-78 0 -132 49q-59 54 -59 136l8 -3l9 -3q7 -1 9 -2h10q37 0 62 21t25 65q0 28 -25 70l-25 32l-141 1v41h506v-41h-72zM381 475h-176l12 -20l8 -15l16 -39l5 -31q0 -67 -58 -102l-25 -10l-34 -9l3 -10l4 -8l3 -8l3 -6
q36 -72 110 -72q41 0 75 23q20 13 32 27l22 31v249z" />
    <glyph glyph-name="less" unicode="&#x3c;" horiz-adv-x="492" 
d="M385 475v-151h-180q-18 0 -37 -8q-32 -15 -44 -46q-7 -16 -7 -37q0 -98 84 -146l35 -16l49 -13l-7 7l-5 6q-7 9 -20 36q-7 23 -7 42q0 45 28 69t69 24q36 0 65.5 -20t36.5 -54q2 -10 2 -23q0 -58 -46 -92q-23 -17 -50 -26q-33 -7 -56 -7q-87 0 -155 59q-39 33 -57.5 68.5
t-18.5 83.5q0 56 37 92.5t94 36.5l137 1v114h-332v41h512v-41h-127zM306 187l-11 -19l-4 -23q0 -42 22 -66l9 -8l14 -8q39 0 55 50q3 11 5 32l-3 23l-9 19q-13 17 -35 17q-15 0 -24.5 -4t-18.5 -13z" />
    <glyph glyph-name="equal" unicode="=" horiz-adv-x="524" 
d="M463 475v-475l-52 1v186l-239 -142l-31 45l248 129l-57 55q-59 57 -83 57q-36 0 -96 -31l-67 -35l-31 40q10 6 31 17l87 36l50 18q17 6 31 6q31 0 86 -57l28 -29l43 -46v225h-413v41h537v-41h-72z" />
    <glyph glyph-name="greater" unicode="&#x3e;" horiz-adv-x="588" 
d="M518 475v-475h-53v207h-107l-1 -29q-2 -53 -39 -85q-50 -43 -91 -43l46 -29l53 -23l-31 -39l-78 48l-18 13l-16 13l-9 9l-24 1h-34q-29 0 -46 23q-5 9 -7 27l3 15l9 15l13 9l16 4q10 0 15.5 -1t14.5 -6l14 -8l15 -11l10 -11l13 -16l34 7q18 4 25 8q60 27 60 87
q0 12 -2 15l-6 10l-9 6l-12 2l-17 -2l-46 -12l-14 -2l-22 3q-21 6 -45 26l-22 23q-44 46 -44 89q0 25 21 38l14 5l18 2l149 1v86h-268v41h600v-41h-82zM465 475h-145v-127h-191l-7 -5l-2 -5l1 -10l5 -11l10 -17l18 -22l12 -13l13 -8l13 -4l17 -1l16 1q16 1 27 4l26 4l17 2
q12 0 22 -3.5t25 -13.5l4 -4l7 -5l112 1v237z" />
    <glyph glyph-name="question" unicode="?" horiz-adv-x="324" 
d="M384 144l-25 -13q-62 -32 -117 -32q-28 0 -51 8q-56 19 -79 60q-10 22 -10 45q0 41 28 69l11 11l17 14l-24 10l-16 10q-40 25 -40 73l2 20l7 23l10 20l10 12l-107 1v41h326v-41h-156l-12 -11l-8 -8l-16 -26q-3 -8 -5 -27q0 -29 26 -50q10 -8 22 -14l24 -4l86 1l18 -37
h-55q-15 0 -32 -7q-64 -20 -64 -80q0 -33 28 -52q14 -10 31 -16l37 -4q35 0 78 20q10 4 32 16l40 25q13 10 16 17v-54z" />
    <glyph glyph-name="at" unicode="@" horiz-adv-x="781" 
d="M153 -145l-27 34l500 720l35 -25z" />
    <glyph glyph-name="A" unicode="A" horiz-adv-x="396" 
d="M291 -53v584h53v-584h-53z" />
    <glyph glyph-name="B" unicode="B" horiz-adv-x="492" 
d="M387 475v-149h-188q-20 0 -33 -8q-26 -12 -42 -51q-5 -17 -5 -36q0 -96 98 -147q27 -11 54 -11q52 0 88.5 30.5t36.5 77.5q0 32 -21 63l-9 10l-12 13l35 34q7 0 18 -12l22 -32q11 -21 17 -55q1 -6 1 -21q0 -64 -49 -105.5t-127 -41.5q-82 0 -142 57q-63 59 -63 142
q0 63 40.5 99t100.5 36l129 1v106h-336v41h494v-41h-107z" />
    <glyph glyph-name="C" unicode="C" horiz-adv-x="230" 
d="M0 475v41h250v-41h-250zM297 130l-26 -13q-12 -6 -28 -9l-29 -2q-56 -4 -103 38q-26 23 -36.5 47.5t-10.5 57.5q0 57 42 99q21 21 46 32q30 12 53 10l23 -2q9 0 25 -4l5 -2l8 -2l7 -44q-5 6 -19 10l-26 4q-16 0 -23 -2l-22 -6q-10 -3 -20 -9t-15 -12l166 -114l6 14v-69
q-9 -12 -23 -22zM127 297l-4 -10l-2 -7l-5 -18l-1 -13q-3 -45 29 -73q14 -16 33.5 -23.5t37.5 -7.5h16q8 3 11 4q13 4 27 14l10 7l12 11z" />
    <glyph glyph-name="D" unicode="D" horiz-adv-x="420" 
d="M489 335l-9 1l-17 -2l-26 -6q-51 -12 -74 -79q-6 -18 -6 -35v-214h-52v148q-37 -37 -93 -37q-60 0 -102 39.5t-42 98.5q0 55 42 95q30 29 71 38q13 3 27 3l27 -3l25 -8v-42l-23 8l-22 3q-36 0 -61 -25t-31 -67q0 -43 25 -71q12 -15 29 -23t34 -8q36 0 73 37q21 21 21 40
v249h-305v41h422v-41h-65v-151l24 20l22 16l14 7l14 6l13 3l14 1q18 1 32 -7l5 -36z" />
    <glyph glyph-name="E" unicode="E" horiz-adv-x="275" 
d="M178 254v-76l-1 -7v-4q-3 -5 -5 -7l-16 -2q-10 0 -24 11l-34 36l-29 39q-8 15 -10 27l3 11q4 5 11 9l5 2l10 3l39 1v178h-127v41h283v-41h-105v-178h176v-43h-176z" />
    <glyph glyph-name="F" unicode="F" horiz-adv-x="336" 
d="M394 163l-23 -17l-33 -19l-32 -13l-33 -9l-33 -2q-45 -3 -93 22q-43 21 -79 64q-16 20 -24 35l-26 52q15 -7 38 -14l44 -4q56 0 96 28q44 30 44 88q0 38 -26.5 68.5t-67.5 30.5q-27 0 -45 -14q-10 -8 -15 -20l-4 -22q0 -30 32 -44l13 -4l19 -3v-42h-13q-60 0 -88 41
q-14 20 -14 54q0 63 74 88q21 7 41 7q31 0 56 -11q55 -18 79 -75q10 -26 10 -54q0 -108 -108 -140q-34 -10 -78 -10l-11 1q6 -15 21 -30l35 -26q43 -25 86 -25q82 0 138 61l23 25l25 37v-78z" />
    <glyph glyph-name="G" unicode="G" horiz-adv-x="588" 
d="M457 475v-104l16 -9l13 -7q28 -15 48 -57q17 -36 17 -80q0 -34 -9 -64q-16 -51 -64 -82q-24 -12 -56 -12q-42 0 -73 22.5t-46 62.5q-12 -42 -43.5 -66.5t-73.5 -24.5q-91 0 -120 96q-8 26 -8 59q0 36 8 59q23 67 67 89q24 11 56 11q46 0 70 -21q28 -15 46 -59l19 30
q5 7 11 16q6 6 9 8q24 21 60 28v105h-404v41h586v-41h-129zM490 259q-3 21 -11 34q-18 36 -61 36q-45 0 -78 -70q-3 -7 -8 -20l-2 -23v-14l6 -24q20 -79 88 -79q39 0 57 38q7 16 9 34l4 45v28q-3 11 -4 15zM274 248q-12 43 -42 65q-20 14 -44 14q-48 0 -72 -69
q-5 -22 -5 -44v-31q2 -7 4 -18q10 -46 39 -61q15 -9 34 -9q48 0 77 60l9 25l9 36z" />
    <glyph glyph-name="H" unicode="H" horiz-adv-x="275" 
d="M246 475v41h39v-41h-39zM201 250v-91l-1 -6l-8 -7l-10 -2q-10 0 -26 13q-26 19 -44 40l-38 45q-11 17 -13 27l3 8l8 8l9 5l7 2l60 1v140q0 19 -13 31.5t-32 12.5q-9 0 -20 -4l-17 -9l-11 -16l-4 -21l1 -14l5 -15l2 -7l5 -9l-50 1l-4 7l-1 6l-4 14l-1 13q-3 43 28 68
t73 25q68 0 89 -51q7 -18 7 -37v-135h164v-43h-164z" />
    <glyph glyph-name="I" unicode="I" horiz-adv-x="215" 
d="M292 205l-25 -14l-14 -5l-12 -3l-14 -3h-13q-54 0 -95 38t-41 99v158h-78v41h221v-41h-92v-166q0 -42 29 -69q13 -13 28 -19q10 -3 29 -5q57 0 92 63q5 9 7 23v-77z" />
    <glyph glyph-name="J" unicode="J" horiz-adv-x="576" 
d="M506 475v-475h-55v248l-256 -197l-31 43l186 133l-71 37l-21 8l-33 17l-14 9l-72 -50l-80 -53l-34 39l79 47q10 3 19 11l22 14l10 7l13 10l-21 12l-13 11q-14 12 -26 34q-8 19 -8 41q0 44 30.5 68.5t72.5 24.5q38 0 71 -24.5t33 -68.5q0 -18 -8 -37q-6 -12 -22 -30
l-13 -11l-17 -14l41 -24l68 -37l32 -13l63 46v174h-107v41h234v-41h-72zM237 459l-19 12l-21 4q-18 0 -36 -14l-11 -17l-4 -23q0 -29 28 -52l18 -12l13 -4l14 7q6 3 10 8q24 19 25 49q0 14 -3.5 23t-13.5 19z" />
    <glyph glyph-name="K" unicode="K" horiz-adv-x="588" 
d="M518 475v-475h-53v350h-319q-14 0 -14 -13l2 -13l7 -14l10 -17l7 -9l15 -18l13 -12l17 -10l20 -3l20 2l27 9l26 8l22 3q28 0 46 -24q14 -22 17 -56q0 -26 -11 -49t-31 -40t-51 -35q-25 -11 -46 -11l100 -75l-41 -32l-102 98h-45q-46 0 -69 31q-5 10 -7 25l3 14l9 13l13 9
l16 3q11 0 22 -7l28 -18l19 -18l7 -10l40 9l28 9q69 30 69 84l-3 13q-2 7 -7 10l-10 6l-13 2l-17 -2l-48 -12l-15 -2q-49 0 -95 52q-24 27 -35 49.5t-11 47.5q0 19 15 32l17 8l21 3l334 1v84h-465v41h590v-41h-72z" />
    <glyph glyph-name="L" unicode="L" horiz-adv-x="371" 
d="M324 260l-35 41h176v-41h-141zM277 475v-167q-2 -7 -2 -10l-6 -22q-6 -21 -33 -33q-9 -3 -21 -6q-8 0 -12 -2l-10 -1l-11 1q-6 0 -14 4l62 -94l27 -35l48 -55l21 -21l-41 -34q-18 7 -48 51l-122 177l-28 46l-18 31l-18 32l43 28l29 -56q18 -35 59 -35l22 3q10 3 13 10
l7 15l2 21l-1 15v137h-235v41h395v-41h-108z" />
    <glyph glyph-name="M" unicode="M" horiz-adv-x="527" 
d="M451 475v-131h-213l-6 -8l-1 -7l1 -11q2 -8 5 -12l8 -16l15 -21l15 -18l15 -12l15 -9l15 -2h6l4 1l69 20l25 6l17 2q23 0 40 -27l8 -25l3 -28q0 -38 -11 -68q-22 -60 -82 -82q-27 -10 -61 -10q-72 0 -146 58q-63 49 -106 108l-31 42l-10 20l39 38q2 -10 10 -22
q4 -9 27 -40q14 -21 47 -60l49 -47q23 -22 64 -41q30 -15 57 -15q45 0 74 31t29 86q0 33 -26 33q-8 0 -23 -5q-19 -3 -39 -13l-21 -7l-14 -2q-49 0 -96.5 61.5t-47.5 100.5l3 19q3 10 11 13l17 7l22 2l173 1v90h-400v41h535v-41h-84z" />
    <glyph glyph-name="N" unicode="N" horiz-adv-x="588" 
d="M463 475v-86l20 -11l21 -9q39 -30 39 -85t-23 -101q-46 -92 -160 -134q-50 -19 -102 -19q-68 0 -110.5 38.5t-42.5 104.5t53 111l-15 6l-12 6l-11 5l-8 6q-46 35 -46 81q0 18 2 27l9 25l13 19q6 9 15 15l-105 1v41h590v-41h-127zM491 307q-5 42 -52 42q-25 0 -41 -21
l-10 -22l-3 -26q0 -23 8 -48q6 -20 20 -41l11 -16l17 -18l6 5l12 15q13 16 28 57q7 21 7 50zM412 475h-242q-18 0 -37 -39l-12 -24l-4 -20q0 -32 33 -59q22 -14 43 -18q6 -2 18 -2h11l13 1h6l7 1h6q5 1 6 2l19 -38l-3 -1l-4 1h-11q-43 0 -75 -30t-32 -72t32 -78
q36 -32 78 -32q55 0 99 30l19 13l24 18l-25 30l-22 40l-16 44q-5 23 -5 42q0 52 36 82l18 10l20 10v89z" />
    <glyph glyph-name="O" unicode="O" horiz-adv-x="229" 
d="M0 475v41h232v-41h-232zM299 139l-22 -15l-31 -11l-31 -3q-61 0 -104 39q-24 22 -35.5 45t-11.5 55q0 57 40.5 102.5t94.5 42.5l18 -1l20 -3l17 -4q9 0 14 -2l11 -52l-11 6l-9 4l-27 8l-27 3q-22 0 -37 -7q-26 -9 -43 -52q-5 -17 -5 -36q0 -72 53 -98q21 -7 40 -7h11
q13 3 19 4q16 4 30 14q33 15 49 43v-58z" />
    <glyph glyph-name="P" unicode="P" horiz-adv-x="324" 
d="M0 475v41h330v-41h-330zM404 180l-35 -29q-39 -32 -86 -42q-15 -3 -29 -3q-50 0 -83 29q-16 14 -25 35t-9 46q0 53 50 103q13 13 26 20l-164 1v41h305v-41h-67l-29 -20l-20 -16q-49 -39 -49 -86q0 -52 39 -67l28 -4q64 0 117 70l35 46q12 16 12 27v-89q-3 -8 -16 -21z
" />
    <glyph glyph-name="Q" unicode="Q" horiz-adv-x="625" 
d="M352 475v-149l10 9l21 15q31 22 60 22q40 0 74 -20.5t49 -55.5q10 -24 10 -49q0 -60 -49 -129l-18 -20l-34 -35l-43 35l26 19l19 18q46 52 46 116q0 32 -18 55q-22 25 -60 25q-17 0 -33 -11q-21 -14 -34 -34q-4 -4 -12 -19l-14 -26v-241h-53v199q-10 -12 -22 -18l-23 -11
l-25 -7l-25 -2q-25 -2 -52 9q-51 21 -70 69q-10 25 -10 53v183h-72v41h631v-41h-279zM299 475h-176v-190q0 -45 23 -68q7 -7 21 -13l32 -4q43 0 71 28q24 24 29 50v197z" />
    <glyph glyph-name="R" unicode="R" horiz-adv-x="275" 
d="M0 475v41h277v-41h-277zM168 322q-19 0 -29 -5q-32 -6 -32 -50q0 -37 18 -76q21 -49 51 -83l47 -53q17 -15 25 -17l-35 -32l-46 41l-32 35q-13 14 -33 45q-45 69 -45 132q0 41 21.5 71t62.5 30l226 1v-39h-199z" />
    <glyph glyph-name="S" unicode="S" horiz-adv-x="6" 
d="M-95 516l-172 226l47 26l160 -252h-35zM-181 516l-197 132l37 41l185 -173h-25z" />
    <glyph glyph-name="T" unicode="T" horiz-adv-x="408" 
d="M0 475v41h408v-41h-408zM355 318l13 -16l18 -33l10 -28l4 -21q0 -51 -27 -85q-33 -40 -90 -40q-68 0 -125 66q-21 24 -40.5 55.5t-34.5 68.5l-20 49q-1 6 -4 19l43 34q-8 -8 6 -39l40 -88q57 -126 139 -126q42 0 57 48q4 13 6 34q0 26 -22 66q-19 36 -42 59
q-11 13 -15 15l227 1v-39h-143z" />
    <glyph glyph-name="U" unicode="U" horiz-adv-x="264" 
d="M0 475v41h268v-41h-268zM184 301v-88l-1 -5v-5q0 -6 -6 -9l-15 -2q-5 0 -22 12l-37 37q-8 8 -19 22t-25 45q0 19 16 29l9 3l12 1l261 1v-41h-173z" />
    <glyph glyph-name="V" unicode="V" horiz-adv-x="492" 
d="M395 475v-155h-178q-18 0 -37 -8q-31 -14 -47 -49q-6 -13 -6 -34q0 -61 48.5 -111.5t115.5 -50.5q64 0 108 44l27 34l43 -24q-21 -35 -51 -56q-55 -39 -119 -39q-90 0 -156 62q-69 64 -69 145q0 58 39.5 94.5t91.5 36.5l139 1v110h-338v41h492v-41h-103z" />
    <glyph glyph-name="W" unicode="W" horiz-adv-x="12" 
d="M-64 618q-22 -22 -48 -31q-29 -10 -65 -10q-69 0 -109 38t-51 103l52 1q0 -47 31 -75.5t78 -28.5q69 0 99 58q8 21 8 45l51 1q0 -57 -46 -101z" />
    <glyph glyph-name="X" unicode="X" horiz-adv-x="287" 
d="M213 475v-266q-4 -18 -22 -21q-13 0 -31 11l-40 34q-40 42 -44 73q1 7 2 9l7 6l4 1q5 1 6 2h4l5 1l58 1v149h-162v41h287v-41h-74z" />
    <glyph glyph-name="Y" unicode="Y" horiz-adv-x="385" 
d="M0 475v41h387v-41h-387zM449 296l-31 -15l-13 -9q-8 -6 -14 -13l-17 -20l-15 -24l-15 -29l-8 -23l-43 25l2 12l8 15l17 29l6 15q-7 20 -44 35l-34 14q-10 3 -31 5q-20 0 -38 -8q-14 -6 -29 -21q-27 -35 -27 -70q0 -76 86 -130l35 -22l51 -24l-25 -42q-51 0 -135 87
q-61 63 -61 135q0 60 41 99t106 39q27 0 51.5 -7.5t44.5 -22.5l27 -21q9 -7 10 -13l9 7l8 6l19 13l14 9l23 10l25 8l10 2l13 2v-46z" />
    <glyph glyph-name="Z" unicode="Z" horiz-adv-x="5" 
d="M-30 711l-7 3l-19 4l-21 2q-30 0 -47.5 -20.5t-17.5 -50.5q0 -23 8.5 -47.5t23.5 -44.5l14 -19l19 -23l-38 1q-9 6 -14 14l-23 36q-3 4 -13 27l-13 28q-9 27 -9 50q0 42 32.5 66t76.5 24l29 -3l27 -9l-1 -40z" />
    <glyph glyph-name="bracketleft" unicode="[" horiz-adv-x="469" 
d="M541 210l-13 -8l-38 -16l-18 -4q-5 -1 -17 -1q-72 0 -107 64q-8 21 -8 45q0 40 28 70.5t68 38.5q10 2 23 2l22 -3l23 -8l12 -36l-23 6l-25 3q-19 0 -30 -5q-26 -4 -42 -34q-5 -13 -5 -32q0 -48 40 -63l26 -4q18 0 29 4q28 4 54 30q10 10 17 23v-59zM512 76l-53 -23
l-56 -16q-33 -5 -53 -5q-43 0 -72 8q-73 20 -126 86q-38 48 -58 94l-17 40l-28 81l45 24l17 -56l6 -6l6 -4l16 -7l19 -2l20 3q19 6 24 23l3 19v140h-205v41h477v-41h-221v-143q0 -45 -41 -66l-36 -10l-46 -3l24 -53l24 -37q27 -42 74.5 -66t98.5 -24q52 0 104 23l34 15
q6 3 25 15q26 17 40 31v-52z" />
    <glyph glyph-name="backslash" unicode="\" horiz-adv-x="408" 
d="M319 394q-73 -73 -126 -73v-145h-52v168q27 0 93 42q90 57 90 127q0 47 -36 84t-83 37q-44 0 -99 -32q-22 -13 -31 -20.5t-12 -14.5l-38 44l29 18l24 14q58 34 123 34q50 0 95.5 -26.5t65.5 -70.5q13 -29 13 -61q0 -69 -56 -125zM139 0v55h58v-55h-58z" />
    <glyph glyph-name="bracketright" unicode="]" horiz-adv-x="180" 
d="M80 -84h-43l41 141h61z" />
    <glyph glyph-name="asciicircum" unicode="^" horiz-adv-x="191" 
d="M129 461h-61l59 143h43z" />
    <glyph glyph-name="underscore" unicode="_" horiz-adv-x="816" 
d="M430 475v-209l121 56l-6 10l-1 14q-1 11 4 22q6 23 29 35q8 4 23 6q52 0 52 -62q0 -19 -22 -35l-10 -6l-13 -8l77 -97l-32 -9q-7 -2 -21 -8q-53 -24 -53 -68q0 -18 6 -33q6 -11 18 -22l23 -11l29 -4q20 0 39 8q26 11 39 24l13 13l17 19l37 -42l-22 -19l-18 -12l-26 -13
l-24 -9l-26 -6l-25 -2q-25 -2 -55 8q-80 24 -80 103q0 45 28 71q33 31 72 31l-55 67l-138 -66v-221h-53v199l-215 -160l-33 45l225 146l-52 56q-48 53 -75 57q-29 0 -95 -34l-68 -35l-31 40l23 12l62 28l72 28q18 7 42 10q13 0 35 -15q30 -23 53 -48l43 -48q11 -13 14 -22
v216h-377v41h826v-41h-396z" />
    <glyph glyph-name="grave" unicode="`" horiz-adv-x="5" 
d="M-24 -209l-15 -7q-36 -17 -83 -17q-30 0 -47 8q-56 15 -77 58q-11 23 -11 48t8 44q11 36 55 58q21 7 41 7h83v-41h-71q-40 0 -57 -37q-4 -10 -6 -27q0 -38 27 -55q26 -22 63 -22q29 0 46 9l23 12l11 11l26 -39z" />
    <glyph glyph-name="a" unicode="a" horiz-adv-x="2" 
d="M-95 628v65h69v-65h-69z" />
    <glyph glyph-name="b" unicode="b" horiz-adv-x="445" 
d="M338 475v-131h-209l-3 -4l-3 -5l1 -14l4 -11l9 -15l15 -19l29 -32l16 -13l14 -3q20 0 49 9q7 2 26 9l24 7l20 2q24 0 40 -22q6 -9 11 -25l4 -27q0 -32 -11 -63q-14 -40 -53 -70q-13 -10 -25 -18q-26 -13 -48 -13l11 -12l10 -7l22 -19l18 -16l40 -26l28 -17l-27 -43
l-15 10l-11 7q-13 8 -30 23l-51 44l-25 25l-19 17l-8 10h-35q-11 1 -33 5q-6 1 -15 5q-47 16 -47 64l3 17q3 9 10 16l14 10l19 4q34 0 73 -39l13 -17l18 -22q19 0 35 5q16 2 25 8q65 29 61 96l-1 19q-1 12 -1.5 16.5t-5.5 7.5l-10 4l-16 -4l-33 -12l-38 -11l-28 -4
q-41 0 -88 64.5t-47 95.5l3 15l11 14l16 10l17 4l174 1v90h-285v41h451v-41h-113z" />
    <glyph glyph-name="c" unicode="c" horiz-adv-x="445" 
d="M373 475v-475h-53v152q-9 -12 -23 -22l-26 -13q-12 -6 -28 -9l-29 -2q-56 -4 -103 38q-26 23 -36.5 47.5t-10.5 57.5q0 57 42 99q21 21 46 32q30 12 53 10l23 -2q9 0 25 -4l5 -2l8 -2l7 -44q-5 6 -19 10l-26 4q-16 0 -23 -2l-22 -6q-10 -3 -20 -9t-15 -12l166 -114l6 22
v246h-320v41h443l2 -41h-72zM127 297l-4 -10l-2 -7l-5 -18l-1 -13q-3 -45 29 -73q14 -16 33.5 -23.5t37.5 -7.5h16q8 3 11 4q13 4 27 14l10 7l12 11z" />
    <glyph glyph-name="d" unicode="d" horiz-adv-x="637" 
d="M357 475v-151l18 17l12 10q30 25 70 25q56 0 98 -38q39 -35 39 -91q0 -58 -52 -122l-22 -27l-30 -33l-43 33q7 2 16 11q44 44 65 94q11 27 11 48q0 28 -10 49q-18 35 -66 35q-41 0 -76 -44q-13 -17 -21.5 -38.5t-8.5 -38.5v-214h-52v148q-37 -37 -93 -37q-57 0 -100.5 39
t-43.5 99t41 97q30 27 70 36q13 3 27 3l27 -3q18 -4 27 -8v-42l-10 4l-5 3l-15 4l-15 2q-42 0 -66 -30t-24 -71q0 -64 49 -88q18 -7 37 -7q36 0 73 37q21 21 21 40v249h-305v41h645v-41h-288z" />
    <glyph glyph-name="e" unicode="e" horiz-adv-x="472" 
d="M413 475v-475h-52v252h-183v-70l1 -11q-1 -5 -2 -6l-8 -6l-13 -2q-16 0 -40 26q-19 19 -51 60q-9 14 -10 26l3 13q4 5 11 9l5 2l10 3l43 1v178h-127v41h488v-41h-75zM361 475h-183v-178h183v178z" />
    <glyph glyph-name="f" unicode="f" horiz-adv-x="216" 
d="M535 516l-25 22l-24 24q-20 20 -35.5 31.5t-23.5 16.5l-60 40q-32 21 -75 36q-36 12 -65 12q-23 0 -40 -8q-37 -12 -57 -58q-8 -27 -7 -47l1 -20l5 -23l6 -19l4 -8l87 1v-41h-85v-475h-53v475h-88v41h91l-4 9l-6 25l-6 27l-1 16q-3 45 23.5 82.5t69.5 54.5q30 11 63 11
q75 0 171 -58q40 -24 70 -49l72 -60l29 -30l30 -29z" />
    <glyph glyph-name="g" unicode="g" horiz-adv-x="455" 
d="M375 475v-129h-238q-9 0 -13 -5l-4 -9l4 -17q2 -9 13 -21l4 -8l6 -7l12 -16l10 -12l7 -4l15 3l16 3l30 4l23 2q26 2 62 -6q58 -15 76 -51q10 -20 10 -45q4 -36 -21 -59l-21 -16l-7 -5l-39 30l5 2l5 3l4 2l3 3q15 15 18 40q0 53 -58 59l-41 4q-93 0 -118 -58
q-9 -19 -9 -40q0 -31 27 -56q30 -28 83 -41l85 -21q10 -1 23 -1q9 0 10 2l-19 -38q-5 -4 -18 -4q-30 0 -78 16q-12 4 -38 13q-130 44 -130 136q0 25 16 50q8 13 19 24l24 24l-21 22l-13 17q-19 24 -27 43q-5 14 -8 37l3 18q3 7 11 14l15 8l18 3l211 1v86h-322v41h475v-41
h-100z" />
    <glyph glyph-name="h" unicode="h" horiz-adv-x="215" 
d="M140 475v-475h-52v475h-88v41h76q1 1 1 4q0 24 -80 116q-49 56 -84 56q-33 0 -50 -25q-11 -17 -17 -42q-1 -7 -1 -19t4 -26q6 -20 11 -30l13 -25l7 -10l-58 1l-12 16l-10 20l-7 22l-2 23q-2 18 9 49q29 85 111 85q36 0 74 -27q48 -34 79 -81l29 -45l36 -63l95 1v-41h-84z
" />
    <glyph glyph-name="i" unicode="i" horiz-adv-x="445" 
d="M377 475v-475h-53v199l-18 -15l-13 -9q-35 -24 -76 -24q-87 0 -129 85q-10 27 -10 54v185h-78v41h459v-41h-82zM324 475h-195v-192q0 -58 56 -88q9 -3 30 -5q31 0 61 19q12 8 19 15l13 14l16 21v216z" />
    <glyph glyph-name="j" unicode="j" horiz-adv-x="372" 
d="M309 475v-131q0 -67 -68 -92q-21 -8 -40 -7l-19 1q-12 2 -18 5l72 -103l28 -35l52 -57l22 -22l-37 -34q-17 7 -56 54q-51 60 -97 129l-31 46l-29 48l-21 36l-20 36l41 30l41 -70q15 -25 57 -25q35 0 50.5 15.5t19.5 49.5v126h-276v41h409v-41h-80z" />
    <glyph glyph-name="k" unicode="k" horiz-adv-x="215" 
d="M141 475v-475h-53v475h-98v41h248v-41h-97z" />
    <glyph glyph-name="l" unicode="l" horiz-adv-x="588" 
d="M518 475v-475h-53v260h-141l-35 41h176v174h-188v-167q-2 -7 -2 -10l-6 -22q-6 -21 -33 -33q-9 -3 -21 -6q-8 0 -12 -2l-10 -1l-11 1q-6 0 -14 4l62 -94l27 -35l48 -55l21 -21l-41 -34q-18 7 -48 51l-122 177l-28 46l-18 31l-18 32l43 28l29 -56q18 -35 59 -35l22 3
q10 3 13 10l7 15l2 21l-1 15v137h-235v41h610v-41h-82z" />
    <glyph glyph-name="m" unicode="m" horiz-adv-x="541" 
d="M410 475l12 -17l8 -12q9 -13 16 -35q3 -17 5 -33q0 -57 -53 -92l20 -9q23 -12 41 -42q23 -38 23 -84q0 -28 -11 -53q-35 -81 -135 -81q-76 0 -150 83q-57 65 -98 155l-27 60q-7 21 -6 26l45 28l15 -41l16 -40q12 -30 24 -54q3 -6 16 -30q67 -118 134 -141q14 -5 31 -5
q28 0 45 8.5t30 24.5q17 26 17 66q0 33 -14 61.5t-43 42.5q-18 9 -39 9l-92 1l-19 43h109l29 3q13 3 19 8q24 17 24 57q0 27 -26 63l-11 12l-15 17l-360 1v41h561v-41h-141z" />
    <glyph glyph-name="n" unicode="n" horiz-adv-x="492" 
d="M393 475v-135h-184q-26 0 -50 -24l-16 -25q-3 -8 -5 -27q0 -92 87 -124l36 -8l52 -4q-1 5 -2 6v5q0 10 -2 15l-1 11q0 15 2 22l9 20q12 19 42 19q10 0 18 -5q17 -6 27 -30l4 -20q0 -33 -19 -50l-8 -7l-12 -8l25 -55l17 -29l17 -23l7 -8l8 -11h-66l-27 53l-28 59l-8 -2h-7
q-78 0 -130 25q-48 23 -69.5 58.5t-21.5 89.5q0 45 29 82t71 37l148 1v92h-336v41h502v-41h-109z" />
    <glyph glyph-name="o" unicode="o" horiz-adv-x="445" 
d="M375 475v-475h-53v156l-23 -17l-22 -15l-31 -11l-31 -3q-61 0 -104 39q-24 22 -35.5 45t-11.5 55q0 57 40.5 102.5t94.5 42.5l18 -1l20 -3l17 -4q9 0 14 -2l11 -52l-11 6l-9 4l-27 8l-27 3q-22 0 -37 -7q-26 -9 -43 -52q-5 -17 -5 -36q0 -72 53 -98q21 -7 40 -7h11
q13 3 19 4q16 4 30 14q33 15 49 43v261h-332v41h477v-41h-92z" />
    <glyph glyph-name="p" unicode="p" horiz-adv-x="541" 
d="M475 475v-475h-53v199q-3 -7 -16 -20l-36 -29q-23 -18 -60 -32q-30 -12 -56 -12q-50 0 -83 29q-16 14 -25 35t-9 46q0 53 50 103q13 13 26 20l-164 1v41h305v-41h-67l-29 -20l-20 -16q-49 -39 -49 -86q0 -52 39 -67l28 -4q58 0 118 56q10 9 21 20q27 29 27 42v210h-422
v41h545v-41h-70z" />
    <glyph glyph-name="q" unicode="q" horiz-adv-x="5" 
d="M-44 -203q-47 -29 -109 -29q-50 0 -114 27q-30 14 -39 18q-20 10 -32 18q-31 18 -42 30l34 43l37 -27l28 -19q68 -46 130 -46q74 0 104 50q7 12 7 33q-2 13 -7 25l-15 20q-6 8 -18 15l-23 4q-24 0 -52 -19l-22 -22l-40 35l12 11l26 15q26 15 62 21q6 1 20 1q48 0 76 -28
q15 -15 24 -35q7 -23 7 -45q0 -63 -54 -96z" />
    <glyph glyph-name="r" unicode="r" horiz-adv-x="492" 
d="M418 475v-475h-53v332h-187q-17 0 -31 -6q-23 -5 -34 -34l-4 -25q0 -69 42 -136q44 -70 76 -89q10 -6 19 -6l-35 -36q-5 0 -13 8l-28 27l-41 46q-4 4 -17 24l-15 25q-40 70 -40 137q0 44 23 75q10 14 28.5 23t37.5 9l219 1v100h-375v41h520v-41h-92z" />
    <glyph glyph-name="s" unicode="s" horiz-adv-x="3" 
d="M-119 516l-207 214l35 38l205 -252h-33z" />
    <glyph glyph-name="t" unicode="t" horiz-adv-x="637" 
d="M563 475v-475h-53v309h-155q6 -4 13 -20l18 -44l10 -35l4 -27q0 -24 -8 -47q-14 -42 -59 -63q-22 -8 -50 -8q-68 0 -128 71q-43 52 -73 133l-19 52l-4 22l43 32v-8q0 -7 2 -13l18 -56q21 -66 62 -124q49 -70 103 -70q31 0 48 24q15 21 15 53q0 25 -9 52q-13 36 -29 59
l-26 38q-8 12 -15 17l239 1v127h-510v41h645v-41h-82z" />
    <glyph glyph-name="u" unicode="u" horiz-adv-x="492" 
d="M424 475v-475h-53v297h-187v-86l-1 -14q-1 -6 -2 -7l-8 -7l-11 -2q-6 0 -22 13l-37 39q-17 18 -32 44q-10 16 -12 27q0 19 16 29l9 3l12 1l275 1v137h-371v41h506v-41h-82z" />
    <glyph glyph-name="v" unicode="v" horiz-adv-x="576" 
d="M506 475v-475h-51v227l-15 -4l-15 -3l-13 -2h-8l-18 1l-31 9l-11 5l3 -10l3 -7l5 -23l2 -22q0 -107 -102 -125q-12 -2 -28 -2q-40 0 -79.5 23t-78.5 69q-65 76 -65 103l41 27l31 -55l25 -37q61 -91 128 -91q47 0 71 56q7 16 7 34q0 24 -8 41q-8 27 -35.5 42.5t-58.5 15.5
h-17q-11 0 -21 -4l-5 -2l-6 -1l-17 38q27 0 43 4q47 12 71 50q11 19 11 40q0 18 -4 30q-6 27 -34 40q-16 7 -35 7q-26 0 -56 -19q-13 -9 -21 -16l-16 -15l-20 -21l-39 31q1 4 11 14l33 27q49 40 112 40q49 0 85 -37q31 -32 31 -81q0 -65 -57 -95l5 -1l9 -2q9 -3 12 -5l17 -8
l9 -5l10 -4l11 -6l11 -4l23 -8l26 -2l20 1l35 9l13 5v203h-96v41h219v-41h-72z" />
    <glyph glyph-name="w" unicode="w" horiz-adv-x="2" 
d="M86 -227q0 12 -13 35q-4 7 -20 31q-10 16 -18 26q-34 47 -67.5 68.5t-71.5 21.5q-31 0 -45.5 -19t-18.5 -50q0 -44 35 -59q7 -3 25 -5l16 2l17 7l7 4l8 5l27 -41l-13 -6q-11 -5 -32 -9l-32 -3q-47 0 -81.5 31t-34.5 77q0 43 36 79q38 32 84 32q86 0 168 -94
q26 -29 40 -56l14 -26l15 -27z" />
    <glyph glyph-name="x" unicode="x" horiz-adv-x="523" 
d="M424 475v-475h-53v475h-158v-285q-2 -10 -8 -15l-14 -4q-11 0 -31 12q-46 34 -73 80q-11 19 -11 33q0 7 2 10l6 5l9 1l11 1l58 1v161h-162v41h536v-41h-112z" />
    <glyph glyph-name="y" unicode="y" horiz-adv-x="602" 
d="M527 475v-475h-52v303l-26 -7l-31 -15l-13 -9q-8 -6 -14 -13l-17 -20l-15 -24l-15 -29l-8 -23l-43 25l2 12l8 15l17 29l6 15q-7 20 -44 35l-34 14q-10 3 -31 5q-20 0 -38 -8q-14 -6 -29 -21q-27 -35 -27 -70q0 -76 86 -130l35 -22l51 -24l-25 -42q-51 0 -135 87
q-61 63 -61 135q0 60 41 99t106 39q27 0 51.5 -7.5t44.5 -22.5l27 -21q9 -7 10 -13l9 7l8 6l19 13l14 9l23 8l25 7l10 1l13 2v130h-475v41h610v-41h-83z" />
    <glyph glyph-name="z" unicode="z" horiz-adv-x="5" 
d="M-357 0l-34 39l278 174v-41z" />
    <glyph glyph-name="braceleft" unicode="{" horiz-adv-x="313" 
d="M293 475v41h25v-41h-25zM371 281l-28 -8l-31 -5l-39 -1l-38 3l-48 10l-21 5l-27 9q-7 0 -16 -7l-23 -18q-37 -35 -37 -75q0 -26 10 -44q7 -14 24 -24l27 -11l35 -3h20l5 2l-2 4v16l3 24l9 16q8 8 14 9l19 4q13 0 21 -3t17 -13l10 -17l4 -20l-3 -17l-7 -13q-3 -5 -12 -10
l-17 -5l11 -19l15 -16l14 -13l21 -15l-43 -30l-9 7l-20 20l-14 21l-5 9l-5 10l-4 12l-10 -4l-7 -1l-18 -4l-14 -1q-26 -2 -56 9q-50 18 -76 69q-10 27 -10 55q0 23 11 43t34 43l19 15l26 18q-8 4 -20 16l-20 31q-8 12 -13 30l-4 30q0 42 30 66t74 24t78.5 -25t34.5 -71
q0 -28 -19 -53q-5 -5 -16 -17l-15 -13l-21 -14l9 -4l9 -1l31 -5l35 -1l40 1q18 0 31 5l29 10q16 5 33 17v-46zM190 458l-19 10l-21 4q-14 0 -22 -4l-18 -9q-8 -6 -12 -16l-4 -21q0 -34 23 -60l9 -10l15 -11q12 4 19 8l14 8q33 25 33 65q0 11 -4 19.5t-13 16.5z" />
    <glyph glyph-name="bar" unicode="|" horiz-adv-x="588" 
d="M521 475v-475h-52v145q-11 -27 -101 -68q-49 -23 -96 -29q-15 -2 -30 -2q-93 0 -128 71q-7 21 -7 38q0 18 4 31q3 18 11 27l6 7l9 9q-20 0 -50 32q-18 18 -23 45q-1 5 -1 17q0 48 44 69l18 4l27 3l129 1v75h-281v41h594v-41h-73zM469 475h-139v-118h-162q-16 0 -23 -2
q-19 0 -28 -14l-4 -22q0 -20 16 -40l21 -20q9 -6 18 -6l7 2l5 2l27 9l18 3h37l29 -2l18 -40l-6 -1h-34l-6 1q-64 0 -83 -19q-22 -20 -22 -51q0 -33 27 -51q15 -10 29 -15l34 -4q65 0 148 53q30 19 39 25q28 20 34 31v279z" />
    <glyph glyph-name="braceright" unicode="}" horiz-adv-x="492" 
d="M383 475v-137h-195q-16 0 -28.5 -4t-21.5 -12t-13 -23l-4 -32q0 -78 88 -114q26 -8 55 -8l10 1l15 2l18 3l-1 9q0 8 5 18q15 55 54 55q32 0 42 -29l3 -18q0 -24 -14 -46q-8 -12 -19 -19q-7 -3 -22 -5l4 -18l3 -12l7 -29l11 -34l4 -10l3 -10l3 -9l5 -21l2 -17
q0 -10 -2 -14l-5 -11l-9 -8l-14 -5l-29 86l-15 -13q-12 -10 -32 -21q-27 -14 -55 -22.5t-54 -8.5q-45 0 -88 33t-43 82q0 35 24 59q28 28 60 32l-20 17l-13 16q-14 18 -26 43q-8 24 -8 46q0 56 28.5 82.5t71.5 26.5l162 1v98h-330v41h490v-41h-107zM314 111l-12 -3l-25 -2
h-11l-17 1l-75 8l-29 -3q-26 -8 -36 -31q-5 -11 -5 -31q0 -28 23 -49q9 -8 25 -14q8 -3 30 -5q23 0 48 8q18 5 53 22l32 20q13 10 15 14z" />
    <glyph glyph-name="asciitilde" unicode="~" horiz-adv-x="5" 
d="M-21 -205l-133 146l45 22l109 -145z" />
    <glyph glyph-name="nonbreakingspace" unicode="&#xa0;" horiz-adv-x="379" 
 />
    <glyph glyph-name="exclamdown" unicode="&#xa1;" horiz-adv-x="12" 
d="M-207 699v55h59v-55h-59zM-64 618q-22 -22 -48 -31q-29 -10 -65 -10q-69 0 -109 38t-51 103l52 1q0 -47 31 -75.5t78 -28.5q69 0 99 58q8 21 8 45l51 1q0 -57 -46 -101z" />
    <glyph glyph-name="cent" unicode="&#xa2;" horiz-adv-x="3" 
d="M-319 516l-207 214l35 38l205 -252h-33z" />
    <glyph glyph-name="sterling" unicode="&#xa3;" horiz-adv-x="632" 
d="M512 210l-4 -8q-12 -15 -35 -20q-5 -1 -18 -1q-72 0 -107 64q-8 21 -8 45q0 40 28 70.5t68 38.5q10 2 23 2l22 -3l23 -8l12 -36l-23 6l-25 3q-19 0 -30 -5q-26 -4 -42 -34q-5 -13 -5 -32l3 -30q6 -23 24 -33l19 -4q25 0 42 15l20 18l16 24v-59zM390 85l-41 29l118 79
l8 -38zM256 332q0 -45 -41 -66l-36 -10l-46 -3l24 -53l24 -37q27 -42 74.5 -66t98.5 -24q66 0 117 39l44 45v-52q-12 -15 -29 -29q-3 -2 -17 -10l-22 -13l-47 -16q-27 -5 -50 -5q-43 0 -72 8q-73 20 -126 86q-38 48 -58 94l-17 40l-28 81l45 24l17 -56l6 -6l6 -4l16 -7
l19 -2l20 3q19 6 24 23l3 19v140h-205v41h668v-41h-97v-475h-53v475h-262v-143z" />
    <glyph glyph-name="currency" unicode="&#xa4;" horiz-adv-x="220" 
d="M148 43v-26h-96v-70l14 -16l13 3l8 1l9 1h14l22 -31l-33 -3l-29 -9q-24 -11 -28 -32v-4q1 -5 2 -6l2 -4l4 -5q8 -8 17 -12l22 -4q29 0 60.5 15.5t33.5 22.5v-43l-10 -6l-18 -9l-23 -8l-19 -5q-26 0 -50.5 15t-34.5 38q-6 14 -8 32l1 14l6 13q4 8 10 12l15 9l-36 29v88
h132z" />
    <glyph glyph-name="yen" unicode="&#xa5;" horiz-adv-x="576" 
d="M510 475v-475h-53v219l-20 -6l-20 -1l-17 1l-16 3q-13 2 -18 5l-16 8q-4 -19 -17 -55l-8 -24q-44 -75 -130 -75q-54 0 -136 45q-15 8 -32 24l34 38q2 -6 13 -15l31 -21q24 -16 47.5 -24t42.5 -8q46 0 75 37q19 26 26 65q2 11 2 24q0 81 -57 109q-20 9 -42 9q-10 0 -20 -4
l-22 -9l-10 -6l-12 -8l-35 40l19 7l14 7l35 12l27 4q77 0 123 -67q10 -14 15 -28l15 -39l9 -4l9 -3l16 -6l14 -1q33 -2 61 16v206h-457v41h582v-41h-72z" />
    <glyph glyph-name="brokenbar" unicode="&#xa6;" 
 />
    <glyph glyph-name="section" unicode="&#xa7;" horiz-adv-x="220" 
d="M148 43v-26h-96v-70l14 -16l13 3l8 1l9 1h14l22 -31l-33 -3l-29 -9q-24 -11 -28 -32v-4q1 -5 2 -6l2 -4l4 -5q8 -8 17 -12l22 -4q29 0 60.5 15.5t33.5 22.5v-43l-10 -6l-18 -9l-23 -8l-19 -5q-26 0 -50.5 15t-34.5 38q-6 14 -8 32l1 14l6 13q4 8 10 12l15 9l-36 29v88
h132z" />
    <glyph glyph-name="dieresis" unicode="&#xa8;" horiz-adv-x="215" 
d="M141 475v-475h-53v475h-88v41h66l-193 214l37 38l203 -252h100v-41h-72z" />
    <glyph glyph-name="copyright" unicode="&#xa9;" horiz-adv-x="215" 
d="M141 475v-475h-53v475h-88v41l-203 132l37 41l193 -173h49l-168 226l47 26l158 -252h100v-41h-72z" />
    <glyph glyph-name="ordfeminine" unicode="&#xaa;" horiz-adv-x="12" 
d="M-127 -143l-123 153l-135 -153h-60l166 180h54l157 -180h-59z" />
    <glyph glyph-name="guillemotleft" unicode="&#xab;" horiz-adv-x="324" 
d="M-2 475v41h371v-41h-371zM172 45l-31 45l248 129l-57 55q-59 57 -83 57q-36 0 -96 -31l-67 -35l-31 40q10 6 31 17l87 36l50 18q17 6 31 6q27 0 91 -65l69 -70v-58z" />
    <glyph glyph-name="logicalnot" unicode="&#xac;" 
 />
    <glyph glyph-name="minus" unicode="&#xad;" 
 />
    <glyph glyph-name="minus" unicode="&#x2212;" 
 />
    <glyph glyph-name="registered" unicode="&#xae;" horiz-adv-x="215" 
d="M141 475v-475h-53v475h-88v41h66l-193 214l37 38l203 -252h100v-41h-72z" />
    <glyph glyph-name="macron" unicode="&#xaf;" 
 />
    <glyph glyph-name="macron" unicode="&#x2c9;" 
 />
    <glyph glyph-name="degree" unicode="&#xb0;" 
 />
    <glyph glyph-name="plusminus" unicode="&#xb1;" horiz-adv-x="12" 
d="M-86 602v56h61v-56h-61zM-30 711l-7 3l-19 4l-21 2q-30 0 -47.5 -20.5t-17.5 -50.5q0 -23 8.5 -47.5t23.5 -44.5l14 -19l19 -23l-38 1q-9 6 -14 14l-23 36q-3 4 -13 27l-13 28q-9 27 -9 50q0 42 32.5 66t76.5 24l29 -3l27 -9l-1 -40z" />
    <glyph glyph-name="twosuperior" unicode="&#xb2;" 
 />
    <glyph glyph-name="threesuperior" unicode="&#xb3;" horiz-adv-x="588" 
d="M510 279v59h62v-59h-62zM451 475v-131h-213l-6 -8l-1 -7l1 -11q2 -8 5 -12l8 -16l15 -21l15 -18l15 -12l15 -9l15 -2h6l4 1l69 20l25 6l17 2q23 0 40 -27l8 -25l3 -28q0 -38 -11 -68q-22 -60 -82 -82q-27 -10 -61 -10q-72 0 -146 58q-63 49 -106 108l-31 42l-10 20l39 38
q2 -10 10 -22q4 -9 27 -40q14 -21 47 -60l49 -47q23 -22 64 -41q30 -15 57 -15q45 0 74 31t29 86q0 33 -26 33q-8 0 -23 -5q-19 -3 -39 -13l-21 -7l-14 -2q-49 0 -96.5 61.5t-47.5 100.5l3 19q3 10 11 13l17 7l22 2l173 1v90h-400v41h586v-41h-135z" />
    <glyph glyph-name="acute" unicode="&#xb4;" horiz-adv-x="576" 
d="M510 475v-475h-53v219l-20 -6l-20 -1l-17 1l-16 3q-13 2 -18 5l-16 8q-4 -19 -17 -55l-8 -24q-44 -75 -130 -75q-54 0 -136 45q-15 8 -32 24l34 38q2 -6 13 -15l31 -21q24 -16 47.5 -24t42.5 -8q46 0 75 37q19 26 26 65q2 11 2 24q0 81 -57 109q-20 9 -42 9q-10 0 -20 -4
l-22 -9l-10 -6l-12 -8l-35 40l19 7l14 7l35 12l27 4q77 0 123 -67q10 -14 15 -28l15 -39l9 -4l9 -3l16 -6l14 -1q33 -2 61 16v206h-457v41h582v-41h-72z" />
    <glyph glyph-name="mu" unicode="&#xb5;" 
 />
    <glyph glyph-name="mu" unicode="&#x3bc;" 
 />
    <glyph glyph-name="paragraph" unicode="&#xb6;" horiz-adv-x="420" 
d="M416 324q-16 -6 -27 -19q-15 -14 -22 -29l-7 -15l-8 -20v-241h-53v199q-10 -12 -22 -18l-23 -11l-25 -7l-25 -2q-25 -2 -52 9q-51 21 -70 69q-10 25 -10 53v183h-72v41h418v-41h-66v-153l20 17l28 19l30 15l25 5v-44zM299 475h-176v-190q0 -45 23 -68q7 -7 21 -13l32 -4
q43 0 71 28q24 24 29 50v197z" />
    <glyph glyph-name="periodcentered" unicode="&#xb7;" horiz-adv-x="361" 
d="M341 26q-32 -25 -78 -32q-14 -2 -34 -2q-52 0 -105 30q-41 23 -53 31q-36 24 -44 40l36 36q0 -6 14 -20l40 -33q58 -48 108 -48h19q12 3 18 4q44 12 60 43q10 19 10 39q0 17 -16 42q-21 31 -54 58l-66 54l-64 56q-38 33 -54.5 59.5t-16.5 47.5q0 42 26 63t69 21l209 1
v-39l-211 -2q-10 0 -17 -4l-15 -9l-11 -14l-4 -15q0 -21 72 -82l135 -113q32 -26 55 -64q18 -30 18 -52q0 -60 -46 -96z" />
    <glyph glyph-name="periodcentered" unicode="&#x2219;" horiz-adv-x="361" 
d="M341 26q-32 -25 -78 -32q-14 -2 -34 -2q-52 0 -105 30q-41 23 -53 31q-36 24 -44 40l36 36q0 -6 14 -20l40 -33q58 -48 108 -48h19q12 3 18 4q44 12 60 43q10 19 10 39q0 17 -16 42q-21 31 -54 58l-66 54l-64 56q-38 33 -54.5 59.5t-16.5 47.5q0 42 26 63t69 21l209 1
v-39l-211 -2q-10 0 -17 -4l-15 -9l-11 -14l-4 -15q0 -21 72 -82l135 -113q32 -26 55 -64q18 -30 18 -52q0 -60 -46 -96z" />
    <glyph glyph-name="cedilla" unicode="&#xb8;" horiz-adv-x="287" 
d="M353 167l-31 -14l-17 -5l-16 -4q-12 0 -18 -2l-16 -1q-70 -4 -128 47q-30 26 -44.5 57.5t-14.5 73.5l8 -2q14 -2 18 -4h10l34 3q34 7 46 36q7 16 7 36q0 16 -6 29.5t-19 32.5l-11 11l-14 13l-141 1v41h291v-41h-86l20 -27q9 -13 16 -32q3 -10 5 -30q0 -68 -58 -97l-25 -8
l-34 -7l3 -9l4 -8l3 -7l3 -6q15 -30 48 -49q28 -16 62 -16q42 0 78 24q18 12 30 25.5t21 30.5v-71q-15 -15 -28 -21z" />
    <glyph glyph-name="onesuperior" unicode="&#xb9;" 
 />
    <glyph glyph-name="ordmasculine" unicode="&#xba;" horiz-adv-x="445" 
d="M229 219q-23 0 -39 -8q-13 -4 -32 -21q-29 -25 -29 -68q0 -66 116 -96l33 -4q7 -1 25 -4l58 -7l-17 -36l-22 -1q-18 -1 -87 13q-23 5 -36 10q-76 21 -108 70q-17 26 -17 61q0 25 16 50q8 13 19 24l24 24l-21 22l-13 17q-19 24 -27 43q-5 14 -8 37l3 18q3 7 11 14l15 8
l18 3l211 1v86h-322v41h445v-41h-70v-129h-238q-9 0 -14 -5l-4 -10l4 -16q6 -12 14 -21l8 -13l12 -14l2 -4l5 -4l291 1v-41h-226z" />
    <glyph glyph-name="guillemotright" unicode="&#xbb;" horiz-adv-x="553" 
d="M240 404v69h69v-69h-69zM14 234v43h513v-43h-513zM240 43v68h69v-68h-69z" />
    <glyph glyph-name="onequarter" unicode="&#xbc;" horiz-adv-x="240" 
d="M230 -176l-11 15l-27 44l-40 76q-6 11 -17 39q-6 14 -15 41q-20 59 -30 113.5t-10 104.5q0 118 38 226q32 91 72 152l27 41q8 12 13 14l59 1q-26 -27 -55 -75q-12 -20 -25 -48q-10 -20 -27 -60l-22 -63q-6 -20 -15 -62l-9 -63l-3 -63q-2 -45 10 -111q15 -87 63 -187
q24 -50 42 -76l41 -59h-59z" />
    <glyph glyph-name="onehalf" unicode="&#xbd;" horiz-adv-x="252" 
d="M194 94q-29 -110 -91 -210l-28 -45q-5 -8 -9 -13q0 -1 -2 -2h-56l20 30l20 29q8 12 21 36q6 10 20 39l34 77q17 38 31 113q10 56 10 109q0 121 -40 229q-20 53 -52 114q-12 21 -23 36l-29 40q-5 7 -10 12l-2 2l56 1l12 -15l27 -41q9 -14 21 -36q61 -115 81 -228
q10 -57 10 -114q0 -82 -21 -163z" />
    <glyph glyph-name="threequarters" unicode="&#xbe;" horiz-adv-x="564" 
d="M18 332v43h513v-43h-513zM18 135v43h513v-43h-513z" />
    <glyph glyph-name="questiondown" unicode="&#xbf;" horiz-adv-x="203" 
d="M244 -182q-101 0 -129 68q-11 25 -11 53v209q0 34 -19 68t-52 53l10 8l9 6l18 15l12 15l8 15l7 20l5 20l2 16v210q0 22 9 46q18 48 58 67q21 10 43 10l13 -2l17 -3l82 1v-31h-80q-20 0 -39 -8q-38 -15 -54 -48q-7 -18 -7 -35l-2 -223q0 -10 -4 -23q-1 -8 -8 -25l-11 -18
l-53 -32l10 -8l8 -4q11 -5 18 -14l13 -11l4 -7l6 -8l9 -25l7 -27l3 -21v-204q0 -42 27 -63q20 -16 51 -20q7 -1 22 -1h80v-39h-82z" />
    <glyph glyph-name="Agrave" unicode="&#xc0;" horiz-adv-x="385" 
d="M293 221q-9 -15 -16 -37l-4 -37v-208q0 -58 -43 -91q-27 -21 -69 -28q-12 -2 -30 -2h-80v39h78q46 0 71 21q27 17 27 63l2 225l8 26l10 25l13 18l12 10l17 13l7 4l11 7l-51 34l-11 13l-8 20l-8 26l-2 22v208q0 37 -30 63t-68 26l-78 1v31h80l8 1l7 2l6 1h9q45 0 78.5 -39
t33.5 -85l1 -227q1 -11 4 -18l6 -18l8 -16l5 -8l15 -15l10 -8l8 -6l12 -8q-30 -15 -49 -48z" />
    <glyph glyph-name="Aacute" unicode="&#xc1;" horiz-adv-x="445" 
d="M377 475v-475h-53v217l-250 -217l-39 35l168 133q-58 0 -89 38q-17 19 -26.5 45t-9.5 55v169h-78v41h445v-41h-68zM322 475h-193v-176q0 -58 56 -88q9 -3 30 -5q17 0 33 8q27 14 39 25l15 13l20 20v203z" />
    <glyph glyph-name="Acircumflex" unicode="&#xc2;" 
 />
    <glyph glyph-name="Atilde" unicode="&#xc3;" horiz-adv-x="445" 
d="M451 516v-41h-113v-131h-209l-3 -4l-3 -5l1 -14l4 -11l9 -15l15 -19l29 -32l16 -13l14 -3q20 0 49 9q7 2 26 9l24 7l20 2q24 0 40 -22q6 -9 11 -25l4 -27q0 -32 -11 -63q-14 -40 -53 -70q-13 -10 -25 -18q-26 -13 -48 -13l11 -12l10 -7l22 -19l18 -16l40 -26l28 -17
l-27 -43l-15 10l-11 7q-13 8 -30 23l-51 44l-25 25l-19 17l-8 10h-35q-11 1 -33 5q-6 1 -15 5q-47 16 -47 64l3 17q3 9 10 16l14 10l19 4q34 0 73 -39l13 -17l18 -22q19 0 35 5q16 2 25 8q65 29 61 96l-1 19q-1 12 -1.5 16.5t-5.5 7.5l-10 4l-16 -4l-33 -12l-38 -11l-28 -4
q-41 0 -88 64.5t-47 95.5l3 15l11 14l16 10l17 4l174 1v90h-285v41h286l-20 29l-19 36l-19 48q-6 23 -6 42q0 41 31.5 65.5t77.5 24.5l29 -3l27 -9v-40l-8 2l-7 3l-20 4l-20 2q-43 0 -61 -41l-4 -30q0 -26 12 -56q3 -7 10 -22l16 -28l19 -28z" />
    <glyph glyph-name="Adieresis" unicode="&#xc4;" horiz-adv-x="536" 
d="M363 133l-32 -14l-47 -15q-23 -5 -42 -5q-28 0 -51 8q-56 19 -79 60q-10 22 -10 45q0 41 28 69l11 11l17 14l-24 10l-16 10q-40 25 -40 73l2 20l7 23l10 20l10 12l-107 1v41h548v-41h-97v-475h-53v153zM398 475h-228l-12 -11l-8 -8l-16 -26q-3 -8 -5 -27q0 -29 26 -50
q10 -8 22 -14l24 -4l86 1l18 -37h-55q-15 0 -32 -7q-64 -20 -64 -80q0 -33 28 -52q14 -10 31 -16l37 -4q24 0 60 12q26 9 40 18q4 2 14 9l34 23v273z" />
    <glyph glyph-name="Aring" unicode="&#xc5;" horiz-adv-x="672" 
d="M365 475l12 -17l8 -12q9 -13 16 -35q3 -17 5 -33q0 -61 -56 -94l29 -20l7 -8l12 -13l2 -3l4 -3l18 19l15 15l21 15l21 11l20 7l21 2q45 0 77 -34.5t32 -79.5q0 -22 -6.5 -45t-19.5 -49q-30 -61 -60 -91l-47 28l24 28l18 23q42 54 42 108l-3 26l-9 22q-15 25 -50 25
q-29 0 -66 -37l-12 -16l-14 -22v-15l1 -7q0 -59 -21 -94q-35 -59 -115 -59t-139 78q-48 64 -73 145l-17 56q-4 21 -3 25l43 33l18 -77q19 -81 59 -141q27 -40 52.5 -58t57.5 -18q50 0 70 30l10 26l4 37q0 26 -5 39q-2 18 -13 33q-19 34 -56 34l-78 1l-20 43h92l18 6
q8 3 13 8q31 24 31 65q0 27 -26 63l-11 12l-15 17l-303 1v41h682v-41h-317z" />
    <glyph glyph-name="AE" unicode="&#xc6;" horiz-adv-x="215" 
d="M638 711l-6 3l-19 4l-19 2q-30 0 -49.5 -19.5t-19.5 -51.5q0 -24 9 -45q11 -28 25 -47l14 -19l21 -23l-59 1l-25 22l-24 24q-20 20 -35.5 31.5t-23.5 16.5l-60 40q-32 21 -75 36q-36 12 -65 12q-23 0 -40 -8q-37 -12 -57 -58q-8 -27 -7 -47l1 -20l6 -22l7 -20l4 -8l72 1
v-41h-72v-475h-53v475h-88v41h92l-3 3l-3 13l-9 33l-3 28q0 62 43 105t113 43q39 0 85 -17q57 -21 94 -48q9 -5 37 -27q14 -11 46 -39l-4 8l-1 7l-4 21l-1 25q-2 62 63 84q18 6 41 6l32 -3l28 -9v-40z" />
    <glyph glyph-name="Ccedilla" unicode="&#xc7;" horiz-adv-x="216" 
d="M535 516l-25 22l-24 24q-20 20 -35.5 31.5t-23.5 16.5l-60 40q-32 21 -75 36q-36 12 -65 12q-23 0 -40 -8q-37 -12 -57 -58q-8 -27 -7 -47l1 -20l5 -23l6 -19l4 -8l87 1v-41h-85v-475h-53v475h-88v41h91l-4 9l-6 25l-6 27l-1 16q-3 45 23.5 82.5t69.5 54.5q30 11 63 11
q75 0 171 -58q40 -24 70 -49l72 -60l29 -30l30 -29zM555 613v65h69v-65h-69z" />
    <glyph glyph-name="Egrave" unicode="&#xc8;" horiz-adv-x="215" 
d="M140 475v-475h-52v475h-88v41h76q1 1 1 4q0 24 -80 116q-49 56 -84 56q-33 0 -50 -25q-11 -17 -17 -42q-1 -7 -1 -19t4 -26q6 -20 11 -30l13 -25l7 -10l-58 1l-12 16l-10 20l-7 22l-2 23q-2 18 9 49q29 85 111 85q36 0 74 -27q48 -34 79 -81l29 -45l36 -63l95 1v-41h-84z
M135 578v65h69v-65h-69z" />
    <glyph glyph-name="Eacute" unicode="&#xc9;" horiz-adv-x="215" 
d="M584 602v56h59v-56h-59zM638 711l-6 3l-19 4l-19 2q-30 0 -49.5 -19.5t-19.5 -51.5q0 -24 9 -45q11 -28 25 -47l14 -19l21 -23l-59 1l-25 22l-24 24q-20 20 -35.5 31.5t-23.5 16.5l-60 40q-32 21 -75 36q-36 12 -65 12q-23 0 -40 -8q-37 -12 -57 -58q-8 -27 -7 -47l1 -20
l6 -22l7 -20l4 -8l72 1v-41h-72v-475h-53v475h-88v41h92l-3 3l-3 13l-9 33l-3 28q0 62 43 105t113 43q39 0 85 -17q57 -21 94 -48q9 -5 37 -27q14 -11 46 -39l-4 8l-1 7l-4 21l-1 25q-2 62 63 84q18 6 41 6l32 -3l28 -9v-40z" />
    <glyph glyph-name="Ecircumflex" unicode="&#xca;" horiz-adv-x="215" 
d="M140 475v-475h-52v475h-88v41h76q1 1 1 4q0 24 -80 116q-49 56 -84 56q-33 0 -50 -25q-11 -17 -17 -42q-1 -7 -1 -19t4 -26q6 -20 11 -30l13 -25l7 -10l-58 1l-12 16l-10 20l-7 22l-2 23q-2 18 9 49q29 85 111 85q36 0 74 -27q48 -34 79 -81l29 -45l36 -63l95 1v-41h-84z
M234 731l-7 3l-20 4l-20 2q-43 0 -61 -41l-4 -30q0 -24 9 -48t23 -44l13 -19l20 -23l-37 1q-6 0 -15 14l-23 36q-35 55 -35 105q0 41 31.5 65.5t77.5 24.5l29 -3l27 -9v-40z" />
    <glyph glyph-name="Edieresis" unicode="&#xcb;" horiz-adv-x="264" 
d="M248 475v41h20v-41h-20zM341 158l-36 -25q-58 -40 -131 -40q-48 0 -88.5 30.5t-40.5 76.5q0 34 25 65l10 10l16 13q-15 7 -30 23q-30 32 -42 55q0 1 -8 20.5t-8 36.5q0 45 28 73t73 28q63 0 85 -48q7 -15 7 -30v-30h-45v31q0 40 -45 40q-22 0 -37 -19l-10 -20l-3 -23
q0 -21 5 -37.5t17 -32.5q15 -21 28 -34q12 -9 24 -11l34 10l39 4l18 -1l20 -2l22 -38l-67 -3q-28 -1 -39 -5q-62 -14 -62 -73q0 -44 53 -64l31 -4q59 0 123 47l22 20l26 28v-53q0 -8 -14 -18z" />
    <glyph glyph-name="Igrave" unicode="&#xcc;" horiz-adv-x="385" 
d="M311 475v-104h-163l-16 -3l-11 -1q-26 -7 -27 -36q-1 -27 20 -46l13 -12l10 -4l45 14l4 -1l5 1h8l7 1h15l4 -1h5l9 -1h7l24 -42h-9l-10 2h-6l-6 1h-28q-9 0 -21 -4l-28 -9q-14 -8 -23.5 -24t-9.5 -35q0 -27 10 -45q7 -15 24 -26l28 -11l35 -4l17 1l11 3l-2 4v19
q0 14 2 21l7 17q6 10 17 15.5t25 5.5q33 0 42 -31l3 -20l-3 -20l-9 -17q-7 -8 -14 -12l-17 -4l52 -90l-44 -24l-45 102l-4 -3l-9 -1l-14 -2h-15q-60 0 -96 21q-27 15 -41 41q-13 23 -13 62q0 12 2 18l7 20l16 24l6 10l-19 13l-13 10q-32 32 -32 63q0 42 21 58q14 10 34 16
q12 4 29 4l133 1v65h-260v41h391v-41h-80z" />
    <glyph glyph-name="Iacute" unicode="&#xcd;" horiz-adv-x="480" 
d="M381 475v-104h-211q-47 0 -47 -54q0 -43 49 -72q45 -27 96 -27q45 0 82 15q12 4 24 12l17 11l19 16l39 -30l-37 -25l-31 -16v-113h-201q-11 0 -19 -3.5t-18 -13.5l-11 -17l-3 -20q0 -67 98 -90q22 -5 50 -5q34 0 67 15l46 21q17 8 26 17l35 -31l-30 -21l-42 -21
q-13 -6 -44.5 -12.5t-55.5 -6.5q-44 0 -85 9q-69 15 -101 69q-15 25 -15 58q0 58 49 79q16 7 31 7l174 1v65l-23 -5l-16 -1h-20q-81 0 -135 30q-32 18 -49 45.5t-17 59.5q0 47 26.5 68.5t65.5 21.5l168 1v67h-332v41h488v-41h-107z" />
    <glyph glyph-name="Icircumflex" unicode="&#xce;" horiz-adv-x="480" 
d="M381 475v-104h-211q-51 0 -51 -54q0 -21 10 -41q22 -36 81 -53q35 -7 58 -7q42 0 81 14q7 2 23 12l16 10l18 17l37 -31l-31 -21l-31 -16v-113h-227q-18 0 -35 -17l-11 -17l-4 -20q0 -48 55 -77q18 -10 55 -18q28 -7 52 -5l41 3l34 9q40 11 40 50q0 19 -14 37l-6 4l-9 5
l33 32l14 -17l11 -11q22 -22 22 -46q0 -80 -101 -99q-32 -6 -63 -6q-86 0 -151.5 36t-65.5 105q0 54 50 79q18 7 32 7l199 1v65q-19 -6 -38 -9l-38 -2q-35 -2 -71 8q-75 20 -102 70q-15 27 -15 62q0 24 7 39q10 29 50 44q18 7 39 7l168 1v67h-332v41h488v-41h-107z" />
    <glyph glyph-name="Idieresis" unicode="&#xcf;" horiz-adv-x="527" 
d="M445 475v-114h-224l-8 -3l-2 -5l1 -6l2 -4l12 -15l20 -20l14 -12l15 -8l17 -4l19 -1l17 1l22 3l45 7l25 2q34 3 52 -17q6 -8 9 -21l3 -27q0 -56 -58 -91q-11 -7 -51 -20q-27 -6 -57 -6h-28q-9 2 -13 2l-37 8l-14 4l-15 6l15 -25l13 -17q13 -17 31 -32q13 -8 27 -10l21 1
l79 16l29 4q13 0 22 -5q20 -4 35 -31q3 -7 5 -22q0 -27 -14 -53q-30 -56 -120 -69q-14 -2 -34 -2q-52 0 -101 15q-59 19 -98 48l-36 27l-42 36l31 36q20 -20 40 -36q5 -4 34 -23q92 -60 172 -60q28 0 60.5 12.5t47.5 33.5q8 13 10 29q-2 13 -6 17l-9 4l-13 2l-18 -4l-80 -16
l-25 -1q-37 -1 -79.5 38.5t-42.5 84.5v4l1 6v4l2 5l-32 20l-50 35l-16 12l-16 11l-15 12l29 42l42 -38l34 -26q36 -28 91 -48q43 -16 79 -16h16q14 2 39 10q4 2 17 8q48 22 48 58q0 13 -9 18l-11 3l-14 1l-21 -2l-31 -7l-34 -7l-27 -2q-25 -2 -76 42q-25 20 -41 41
q-12 20 -12 36l3 20q3 9 11 14l16 8l19 3l186 1v75h-393v41h525v-41h-80z" />
    <glyph glyph-name="Eth" unicode="&#xd0;" 
 />
    <glyph glyph-name="Ntilde" unicode="&#xd1;" horiz-adv-x="637" 
d="M357 475v-151l18 17l12 10q30 25 70 25q56 0 98 -38q39 -35 39 -91q0 -58 -52 -122l-22 -27l-30 -33l-43 33q7 2 16 11q44 44 65 94q11 27 11 48q0 28 -10 49q-18 35 -66 35q-41 0 -76 -44q-13 -17 -21.5 -38.5t-8.5 -38.5v-214h-52v148q-37 -37 -93 -37q-57 0 -100.5 39
t-43.5 99t41 97q30 27 70 36q13 3 27 3l27 -3q18 -4 27 -8v-42l-24 8l-22 3q-36 0 -64 -26q-9 -9 -20 -30q-7 -18 -7 -36q0 -43 25 -71q12 -15 29 -23t34 -8q36 0 73 37q21 21 21 40v249h-305v41h635v-41h-278zM403 -199l-14 -7q-45 -17 -82 -17q-27 0 -48 8q-50 14 -76 61
q-11 20 -11 47q0 70 62 100q21 7 41 7h82v-39h-68q-26 0 -44 -18q-10 -10 -16 -22l-4 -25q0 -18 7 -31q7 -17 34 -33q20 -11 50 -11q46 0 79 29l25 -39z" />
    <glyph glyph-name="Ograve" unicode="&#xd2;" horiz-adv-x="494" 
d="M201 250v-91l-1 -6l-8 -7l-10 -2q-10 0 -26 13q-26 19 -44 40l-38 45q-11 17 -13 27l3 8l8 8l9 5l7 2l60 1v140q0 19 -13 31.5t-32 12.5q-9 0 -20 -4l-17 -9l-11 -16l-4 -21l1 -14l5 -15l2 -7l5 -9l-50 1l-4 7l-1 6l-4 14l-1 13q-3 43 28 68t73 25q68 0 89 -51
q7 -18 7 -37v-135h157v182h-98v41h248v-41h-97v-475h-53v250h-157z" />
    <glyph glyph-name="Oacute" unicode="&#xd3;" horiz-adv-x="492" 
d="M422 475v-475h-53v127q-4 -6 -8 -8l-17 -11q-54 -35 -112 -35q-74 0 -118 53q-51 59 -51 119l23 -6l29 -2l36 3q25 2 43.5 19t18.5 41q0 31 -32 46l-35 10l-42 4l-46 -3l-51 -9q-27 -5 -60 -16q-26 -7 -38 -13l-1 46q23 3 35 8l27 7l71 12q30 5 64 5q44 0 62 -5
q60 -8 84 -44q13 -20 13 -44q0 -56 -43 -81q-12 -7 -42 -16q-28 -5 -56 -5q26 -92 115 -92q22 0 45 9q29 11 48 28l17 15l21 23v290h-369v41h492v-41h-70z" />
    <glyph glyph-name="Ocircumflex" unicode="&#xd4;" horiz-adv-x="527" 
d="M445 475v-90h-224l-7 -3l-2 -3l1 -5l6 -7l9 -10l14 -12l19 -13l14 -9l12 -5l12 -1l18 1l21 3l52 9l27 3l28 -3q39 -11 39 -60q0 -45 -33 -71l-14 -11l-19 -11v-101h-221q-11 0 -19 -4l-17 -9l-11 -14l-4 -17q0 -62 62 -84l25 -9l37 -9q0 11 -2 17l-1 15q-3 38 27 59
q25 17 65 17q24 0 39.5 -3.5t31.5 -13.5q27 -13 31 -48q0 -49 -44 -69q-38 -17 -93 -17q-109 0 -166 39q-62 42 -62 112q0 47 52 66q16 6 32 6l187 1v47l-6 -2l-14 -1l-16 -1h-11l-36 1q-16 0 -33 5l-34 9l-35 16l-46 23q-20 10 -28 17l-37 26l-32 31l29 38l40 -38l34 -25
q86 -63 172 -63q20 0 36 4q22 4 36 13q48 17 48 59q0 13 -9 18l-11 3l-14 1l-21 -2l-31 -7l-34 -7l-27 -2q-20 -1 -54 18q-9 5 -23 15q-25 17 -38.5 35t-13.5 36l3 19q3 8 10 14l16 7l20 3l186 1v53h-393v41h525v-41h-80zM410 -23l-10 4q-8 0 -22 -6l-31 -19l-14 -10
l-19 -16h5l8 -1h5l5 -1h10q16 0 25 2q14 1 19 4q23 8 23 31q0 8 -4 12z" />
    <glyph glyph-name="Otilde" unicode="&#xd5;" 
 />
    <glyph glyph-name="Odieresis" unicode="&#xd6;" horiz-adv-x="371" 
d="M457 198h-7l-8 -1h-6l-14 -2h-28q-8 0 -12 2l-6 1q-5 1 -6 2l-7 2l-6 4v-28q0 -51 -39 -85q-50 -43 -91 -43l46 -29l53 -23l-31 -39l-78 48l-18 13l-16 13l-9 9l-24 1h-34q-29 0 -46 23q-5 9 -7 27l3 15l9 15l13 9l16 4q10 0 15.5 -1t14.5 -6l14 -8l15 -11l10 -11l13 -16
l34 7q18 4 25 8q60 27 60 87q0 12 -2 15l-6 10l-9 6l-12 2l-17 -2l-46 -12l-14 -2l-22 3q-21 6 -45 26l-22 23q-44 46 -44 89q0 25 21 38l14 5l18 2l149 1v86h-268v41h375v-41h-55v-127h-191l-7 -5l-2 -5l1 -10l5 -11l10 -17l18 -22l12 -13l13 -8l13 -4l17 -1l16 1
q16 1 27 4l26 4l17 2q18 0 31 -9l16 -11l10 -4l26 -8l25 -2l28 3q9 2 25 10l4 2l5 5v-50z" />
    <glyph glyph-name="multiply" unicode="&#xd7;" 
 />
    <glyph glyph-name="Oslash" unicode="&#xd8;" horiz-adv-x="637" 
d="M357 475v-151l18 17l12 10q30 25 70 25q56 0 98 -38q39 -35 39 -91q0 -58 -52 -122l-22 -27l-30 -33l-43 33q7 2 16 11q44 44 65 94q11 27 11 48q0 28 -10 49q-18 35 -66 35q-41 0 -76 -44q-13 -17 -21.5 -38.5t-8.5 -38.5v-214h-52v162l-237 -158l-29 39l145 86l-34 9
q-16 4 -24 11q-58 34 -58 100q0 57 42 95q32 29 71 37q14 3 28 3l26 -3q11 -1 25 -7v-42l-24 8l-22 3q-36 0 -64 -26q-9 -9 -20 -30q-7 -18 -7 -36q0 -54 56 -84q18 -7 32 -7q12 0 19 2l20 9l55 38v266h-305v41h655v-41h-298z" />
    <glyph glyph-name="Ugrave" unicode="&#xd9;" horiz-adv-x="348" 
d="M0 475v41h393v-41h-393zM258 328q-34 0 -64 -25t-30 -64q0 -57 63 -130l26 -30l38 -37l-31 -38l-42 44l-30 36q-73 88 -73 155q0 29 13 49q2 4 9 14l25 25l-141 1v39h418v-39h-181z" />
    <glyph glyph-name="Uacute" unicode="&#xda;" horiz-adv-x="252" 
d="M0 475v41h254v-41h-254zM258 243l-10 -4l-27 -8l-24 -2l-40 3q-15 1 -42 10l-49 16l-33 18v42q6 -7 24 -15l46 -15l43 -9l40 -3l29 3l31 9l11 5l14 7v-50z" />
    <glyph glyph-name="Ucircumflex" unicode="&#xdb;" horiz-adv-x="287" 
d="M206 156q-19 -7 -42 -7q-50 0 -75 30q-9 10 -20 33q-6 18 -6 41q0 46 28 75.5t73 29.5q27 0 43 -8q26 -10 42 -38t16 -58q0 -31 -15 -58q-17 -30 -44 -40z" />
    <glyph glyph-name="Udieresis" unicode="&#xdc;" horiz-adv-x="371" 
d="M291 264l-21 8l-33 17l-14 9l-73 -50l-20 -15l-29 -19l-33 -20l-31 40l96 57l47 32l-21 14l-13 13q-35 35 -35 77q0 43 30.5 67.5t71.5 24.5q39 0 73 -25q24 -19 31 -48q1 -7 1 -19q0 -11 -2 -18l-5 -17q-3 -10 -10 -18l-12 -18l-12 -14l-17 -15l9 -6l9 -5l8 -5l9 -4
l31 -17q8 -2 22 -11l113 -55v-48zM249 465l-19 12l-21 4q-18 0 -36 -14l-11 -17l-4 -23q0 -28 17 -45q22 -27 42 -29l14 10l10 9q24 22 25 51q0 14 -3.5 23t-13.5 19z" />
    <glyph glyph-name="Yacute" unicode="&#xdd;" horiz-adv-x="625" 
d="M352 475v-149l10 9l21 15q31 22 60 22q40 0 74 -20.5t49 -55.5q10 -24 10 -49q0 -60 -49 -129l-18 -20l-34 -35l-43 35l26 19l19 18q46 52 46 116q0 32 -18 55q-22 25 -60 25q-17 0 -33 -11q-21 -14 -34 -34q-4 -4 -12 -19l-14 -26v-241h-53v199l-213 -166l-37 35
l154 104l-8 -2h-7l-22 1l-19 5l-25 12l-22 18l-13 17q-7 12 -9 20l-5 23l-1 26v183h-72v41h631v-41h-279zM299 475h-176v-190q0 -45 23 -68q7 -7 21 -13l32 -4q43 0 71 28q24 24 29 50v197z" />
    <glyph glyph-name="Thorn" unicode="&#xde;" horiz-adv-x="264" 
d="M193 447h-43l41 143h61zM94 449h-43l43 143h58z" />
    <glyph glyph-name="germandbls" unicode="&#xdf;" horiz-adv-x="275" 
d="M209 453h-59l59 143h43zM111 455h-60l58 143h43z" />
    <glyph glyph-name="agrave" unicode="&#xe0;" horiz-adv-x="445" 
d="M319 136v-58q-3 -8 -5 -10l-8 -2q-4 0 -13 8l-22 24l-20 26l-7 15l1 8q2 5 4 6l6 3l11 3l165 1l1 59h-203q-23 0 -39 -8q-13 -4 -32 -21q-29 -25 -29 -68q0 -66 116 -96l33 -4q7 -1 25 -4l58 -7l-17 -36l-22 -1q-18 -1 -87 13q-23 5 -36 10q-76 21 -108 70q-17 26 -17 61
q0 25 16 50q8 13 19 24l24 24l-21 22l-13 17q-19 24 -27 43q-5 14 -8 37l3 18q3 7 11 14l15 8l18 3l211 1v86h-322v41h445v-41h-70v-129h-238q-9 0 -14 -5l-4 -10l4 -16q6 -12 14 -21l8 -13l12 -14l2 -4l5 -4l289 -1l2 -258h-23l-1 136h-112z" />
    <glyph glyph-name="aacute" unicode="&#xe1;" horiz-adv-x="672" 
d="M598 475v-475h-53v113q-66 -70 -157 -70q-93 0 -146 79h5l4 -1h10q51 0 68 31q7 13 7 29t-4 25t-14 15l-4 1l-4 2h-5q-5 1 -6 2l-119 1q-8 0 -20 -9q-7 -5 -20 -21q-9 -14 -15 -31l-4 -36q0 -43 50 -81q12 -10 41 -28l59 -29q22 -8 36 -10l-37 -35q-16 -6 -103 48
q-47 29 -73 64q-29 37 -26 69l3 38q1 17 11 28l13 15l26 26l-17 19l-11 16q-29 42 -29 75l3 18q3 7 11 14l15 8l18 3l211 1v86h-322v41h670v-41h-72zM545 475h-170v-129h-238q-9 0 -15 -6q-2 -2 -4 -12l3 -17q3 -10 11 -20l14 -17l12 -9l166 1l19 -9q9 -4 13 -8
q33 -25 33 -62q0 -41 -23 -64l-10 -10l-14 -10l16 -8l16 -6l15 -5l11 -1q27 0 55 13q34 16 52 38l17 21l21 30v290z" />
    <glyph glyph-name="acircumflex" unicode="&#xe2;" horiz-adv-x="480" 
d="M418 475v-129h-281q-16 0 -19 -17q0 -13 5 -21l15 -25l20 -22l16 -10l13 4l27 7l32 6l27 2q27 2 69 -6q66 -13 89 -48q12 -19 12 -47q0 -35 -35 -47l-23 -5l-45 -7q-19 0 -28 -2q-44 -3 -44 -41q0 -29 27 -38l28 -9l31 -3l30 3q9 1 32 11l6 2l8 5l21 -42q-14 -7 -45 -14
q-23 -5 -50 -5q-63 0 -95 21q-44 22 -44 73q0 47 29 65q25 19 76 21h24l17 1h14l11 3l6 6l2 12q0 15 -9.5 24.5t-32.5 17.5l-35 6l-46 2q-30 1 -62 -8q-55 -17 -81 -60q-11 -18 -11 -45t12 -59q7 -23 28 -48q33 -40 53.5 -56.5t39.5 -18.5l-35 -39q-38 6 -103 92
q-22 30 -35 63q-11 29 -11 66q0 39 17 62l17 23l27 27l-19 21l-13 17l-25 43q-6 16 -8 36l3 18q3 7 11 14l15 8l18 3l254 1v86h-365v41h488v-41h-70z" />
    <glyph glyph-name="atilde" unicode="&#xe3;" horiz-adv-x="686" 
d="M615 475v-475h-52v100h-163v-55l-1 -11q-1 -5 -2 -6l-8 -6l-10 -2q-18 0 -57 40q-37 35 -41 58l1 8l5 6l8 3l12 3l39 1v84h-143q-49 0 -68 -58l-4 -35q0 -32 29 -65q23 -26 57 -44l55 -29q21 -8 35 -10l-37 -35q-24 0 -95.5 49t-88.5 98q-6 17 -6 34l3 32q5 26 24 46
l22 23l-19 21l-13 17l-25 42q-6 16 -8 36l3 18q3 7 11 14l15 8l18 3l211 1v86h-322v41h688v-41h-73zM563 475h-188v-129h-238q-14 0 -17 -17q0 -22 17 -41l16 -18q4 -3 13 -5l234 1v-127h163v336z" />
    <glyph glyph-name="adieresis" unicode="&#xe4;" horiz-adv-x="709" 
d="M434 475v-118l37 16q21 6 44 6q60 0 107.5 -37t47.5 -95q0 -38 -28 -95q-12 -25 -23 -41l-22 -32l-29 -41l-43 30q3 3 5 4q6 5 11 13l30 47q44 69 44 119q0 37 -24 60.5t-60 23.5q-32 0 -46 -5q-18 -3 -33 -12l-14 -11l-4 -9v-298h-51v324h-125q-59 0 -87 -52
q-7 -18 -7 -33q0 -60 51 -135l21 -31l30 -41l-43 -26l-32 44l-22 35q-26 42 -41 84q-13 37 -13 70q0 34 22 60l18 17l7 7l-141 1v43h362v108h-383v41h713v-41h-279z" />
    <glyph glyph-name="aring" unicode="&#xe5;" horiz-adv-x="438" 
d="M256 67q-67 0 -124.5 46t-57.5 115q0 52 28.5 94t76.5 62q32 13 63 13q69 0 121.5 -49t52.5 -120q0 -66 -44.5 -113.5t-115.5 -47.5zM268 351q-58 0 -100.5 -46.5t-42.5 -108.5q0 -19 9 -36q6 -12 23 -28q13 -10 34 -20q18 -6 39 -6q39 0 75 28q33 25 51 64q13 27 13 57
q0 41 -27.5 68.5t-73.5 27.5z" />
    <glyph glyph-name="ae" unicode="&#xe6;" horiz-adv-x="492" 
d="M383 475v-127h-195q-67 0 -67 -81q0 -78 88 -114q26 -8 55 -8l10 1l15 2l18 3l-1 9q0 8 5 18q15 55 54 55q32 0 42 -29l3 -18q0 -24 -14 -46q-8 -12 -19 -19q-7 -3 -22 -5l2 -13l7 -35l7 -22l12 -29l17 -27l10 -14l10 -11h-59l-18 41l-12 29q-9 22 -13 39l-4 36
l-207 -151l-31 43l184 109q-27 0 -75 9q-9 1 -21 7q-96 36 -96 140q0 52 27.5 85.5t72.5 33.5l162 1v88h-330v41h490v-41h-107z" />
    <glyph glyph-name="ccedilla" unicode="&#xe7;" horiz-adv-x="445" 
d="M377 475v-475h-53v217l-250 -217l-39 35l168 133q-58 0 -89 38q-17 19 -26.5 45t-9.5 55v169h-78v41h445v-41h-68zM322 475h-193v-176q0 -58 56 -88q9 -3 30 -5q17 0 33 8q27 14 39 25l15 13l20 20v203z" />
    <glyph glyph-name="egrave" unicode="&#xe8;" horiz-adv-x="264" 
d="M248 475v41h20v-41h-20zM341 158l-36 -25q-58 -40 -131 -40q-48 0 -88.5 30.5t-40.5 76.5q0 34 25 65l10 10l16 13q-15 7 -30 23q-30 32 -42 55q0 1 -8 20.5t-8 36.5q0 45 28 73t73 28q63 0 85 -48q7 -15 7 -30v-30h-45v31q0 40 -45 40q-22 0 -37 -19l-10 -20l-3 -23
q0 -21 5 -37.5t17 -32.5q15 -21 28 -34q12 -9 24 -11l34 10l39 4l18 -1l20 -2l22 -38l-67 -3q-28 -1 -39 -5q-62 -14 -62 -73q0 -44 53 -64l31 -4q59 0 123 47l22 20l26 28v-53q0 -8 -14 -18z" />
    <glyph glyph-name="eacute" unicode="&#xe9;" horiz-adv-x="504" 
d="M434 477v-477h-53v223l-186 -100l30 -51l1 -9l1 -5q0 -12 -6 -15l-8 -2l-10 -1l-14 1q-11 1 -18 4l-23 6l-27 12l-18 9q-9 6 -13 11l-7 10l-2 11q0 18 21 34l4 3l7 4l242 103l-18 20l-14 16q-19 22 -36 34q-17 16 -29 21l-15 6l-16 4l-18 2l-16 1l-24 -1l-22 -3l-9 -2
l-11 -3l4 -72l-3 -11l-3 -6l-7 -6l-8 -2l-10 2l-13 8l-15 13l-17 18l-28 36l-6 10l-2 10q0 12 14 23q20 10 43 17l59 10l64 4q38 2 63 -8q14 -6 28 -20q24 -20 43 -43l20 -24l28 -32v205h-381v41h506v-39h-72z" />
    <glyph glyph-name="ecircumflex" unicode="&#xea;" horiz-adv-x="480" 
d="M381 475v-104h-211q-47 0 -47 -54q0 -43 49 -72q45 -27 96 -27q45 0 82 15q12 4 24 12l17 11l19 16l39 -30l-37 -25l-31 -16v-113h-201q-11 0 -19 -3.5t-18 -13.5l-11 -17l-3 -20q0 -67 98 -90q22 -5 50 -5q34 0 67 15l46 21q17 8 26 17l35 -31l-30 -21l-42 -21
q-13 -6 -44.5 -12.5t-55.5 -6.5q-44 0 -85 9q-69 15 -101 69q-15 25 -15 58q0 58 49 79q16 7 31 7l174 1v65l-23 -5l-16 -1h-20q-81 0 -135 30q-32 18 -49 45.5t-17 59.5q0 47 26.5 68.5t65.5 21.5l168 1v67h-332v41h488v-41h-107z" />
    <glyph glyph-name="edieresis" unicode="&#xeb;" horiz-adv-x="480" 
d="M381 475v-104h-211q-51 0 -51 -54q0 -21 10 -41q22 -36 81 -53q35 -7 58 -7q42 0 81 14q7 2 23 12l16 10l18 17l37 -31l-31 -21l-31 -16v-113h-227q-18 0 -35 -17l-11 -17l-4 -20q0 -48 55 -77q18 -10 55 -18q28 -7 52 -5l41 3l34 9q40 11 40 50q0 19 -14 37l-6 4l-9 5
l33 32l14 -17l11 -11q22 -22 22 -46q0 -80 -101 -99q-32 -6 -63 -6q-86 0 -151.5 36t-65.5 105q0 54 50 79q18 7 32 7l199 1v65q-19 -6 -38 -9l-38 -2q-35 -2 -71 8q-75 20 -102 70q-15 27 -15 62q0 24 7 39q10 29 50 44q18 7 39 7l168 1v67h-332v41h488v-41h-107z" />
    <glyph glyph-name="igrave" unicode="&#xec;" horiz-adv-x="527" 
d="M445 475v-114h-224l-8 -3l-2 -5l1 -6l2 -4l12 -15l20 -20l14 -12l15 -8l17 -4l19 -1l17 1l22 3l45 7l25 2q34 3 52 -17q6 -8 9 -21l3 -27q0 -56 -58 -91q-11 -7 -51 -20q-27 -6 -57 -6h-28q-9 2 -13 2l-37 8l-14 4l-15 6l15 -25l13 -17q13 -17 31 -32q13 -8 27 -10l21 1
l79 16l29 4q13 0 22 -5q20 -4 35 -31q3 -7 5 -22q0 -27 -14 -53q-30 -56 -120 -69q-14 -2 -34 -2q-52 0 -101 15q-59 19 -98 48l-36 27l-42 36l31 36q20 -20 40 -36q5 -4 34 -23q92 -60 172 -60q28 0 60.5 12.5t47.5 33.5q8 13 10 29q-2 13 -6 17l-9 4l-13 2l-18 -4l-80 -16
l-25 -1q-37 -1 -79.5 38.5t-42.5 84.5v4l1 6v4l2 5l-32 20l-50 35l-16 12l-16 11l-15 12l29 42l42 -38l34 -26q36 -28 91 -48q43 -16 79 -16h16q14 2 39 10q4 2 17 8q48 22 48 58q0 13 -9 18l-11 3l-14 1l-21 -2l-31 -7l-34 -7l-27 -2q-25 -2 -76 42q-25 20 -41 41
q-12 20 -12 36l3 20q3 9 11 14l16 8l19 3l186 1v75h-393v41h525v-41h-80z" />
    <glyph glyph-name="iacute" unicode="&#xed;" horiz-adv-x="385" 
d="M311 475v-104h-163l-16 -3l-11 -1q-26 -7 -27 -36q-1 -27 20 -46l13 -12l10 -4l45 14l4 -1l5 1h8l7 1h15l4 -1h5l9 -1h7l24 -42h-9l-10 2h-6l-6 1h-28q-9 0 -21 -4l-28 -9q-14 -8 -23.5 -24t-9.5 -35q0 -27 10 -45q7 -15 24 -26l28 -11l35 -4l17 1l11 3l-2 4v19
q0 14 2 21l7 17q6 10 17 15.5t25 5.5q33 0 42 -31l3 -20l-3 -20l-9 -17q-7 -8 -14 -12l-17 -4l52 -90l-44 -24l-45 102l-4 -3l-9 -1l-14 -2h-15q-60 0 -96 21q-27 15 -41 41q-13 23 -13 62q0 12 2 18l7 20l16 24l6 10l-19 13l-13 10q-32 32 -32 63q0 42 21 58q14 10 34 16
q12 4 29 4l133 1v65h-260v41h391v-41h-80z" />
    <glyph glyph-name="icircumflex" unicode="&#xee;" horiz-adv-x="492" 
d="M422 475v-475h-53v127q-4 -6 -8 -8l-17 -11q-54 -35 -112 -35q-74 0 -118 53q-51 59 -51 119l23 -6l29 -2l36 3q25 2 43.5 19t18.5 41q0 31 -32 46l-35 10l-42 4l-46 -3l-51 -9q-27 -5 -60 -16q-26 -7 -38 -13l-1 46q23 3 35 8l27 7l71 12q30 5 64 5q44 0 62 -5
q60 -8 84 -44q13 -20 13 -44q0 -56 -43 -81q-12 -7 -42 -16q-28 -5 -56 -5q26 -92 115 -92q22 0 45 9q29 11 48 28l17 15l21 23v290h-369v41h492v-41h-70z" />
    <glyph glyph-name="idieresis" unicode="&#xef;" horiz-adv-x="527" 
d="M445 475v-90h-224l-7 -3l-2 -3l1 -5l6 -7l9 -10l14 -12l19 -13l14 -9l12 -5l12 -1l18 1l21 3l52 9l27 3l28 -3q39 -11 39 -60q0 -45 -33 -71l-14 -11l-19 -11v-101h-221q-11 0 -19 -4l-17 -9l-11 -14l-4 -17q0 -62 62 -84l25 -9l37 -9q0 11 -2 17l-1 15q-3 38 27 59
q25 17 65 17q24 0 39.5 -3.5t31.5 -13.5q27 -13 31 -48q0 -49 -44 -69q-38 -17 -93 -17q-109 0 -166 39q-62 42 -62 112q0 47 52 66q16 6 32 6l187 1v47l-6 -2l-14 -1l-16 -1h-11l-36 1q-16 0 -33 5l-34 9l-35 16l-46 23q-20 10 -28 17l-37 26l-32 31l29 38l40 -38l34 -25
q86 -63 172 -63q20 0 36 4q22 4 36 13q48 17 48 59q0 13 -9 18l-11 3l-14 1l-21 -2l-31 -7l-34 -7l-27 -2q-20 -1 -54 18q-9 5 -23 15q-25 17 -38.5 35t-13.5 36l3 19q3 8 10 14l16 7l20 3l186 1v53h-393v41h525v-41h-80zM410 -23l-10 4q-8 0 -22 -6l-31 -19l-14 -10
l-19 -16h5l8 -1h5l5 -1h10q16 0 25 2q14 1 19 4q23 8 23 31q0 8 -4 12z" />
    <glyph glyph-name="eth" unicode="&#xf0;" horiz-adv-x="480" 
d="M381 475v-104h-211q-51 0 -51 -54q0 -21 10 -41q22 -36 81 -53q35 -7 58 -7q57 0 87 69l8 28l8 41l38 -12q0 -19 -2 -29l-1 -26q-1 -15 -4 -24l-5 -20l-3 -3l-3 -6l-4 -9l-3 -12l-2 -5l-1 -8v-112h-227q-18 0 -35 -17l-11 -17l-4 -20q0 -48 55 -77q18 -10 55 -18
q28 -7 52 -5l41 3l34 9q40 11 40 50q0 19 -14 37l-6 4l-9 5l33 32l14 -17l11 -11q22 -22 22 -46q0 -80 -101 -99q-32 -6 -63 -6q-86 0 -151.5 36t-65.5 105q0 54 50 79q18 7 32 7l199 1v65q-19 -6 -38 -9l-38 -2q-35 -2 -71 8q-75 20 -102 70q-15 27 -15 62q0 24 7 39
q10 29 50 44q18 7 39 7l168 1v67h-332v41h488v-41h-107z" />
    <glyph glyph-name="ntilde" unicode="&#xf1;" horiz-adv-x="240" 
d="M113 11q-36 0 -64.5 22.5t-28.5 67.5q0 22 7 37q11 32 51 47q15 6 35 6q41 0 67.5 -25t26.5 -65t-27.5 -65t-66.5 -25zM134 50q9 3 16 11l10 17l4 21q0 13 -4 21l-9 17q-6 8 -17 12l-21 4q-23 0 -38 -17l-10 -17l-3 -20l3 -21q3 -8 10 -17l15 -11l23 -4z" />
    <glyph glyph-name="ograve" unicode="&#xf2;" 
 />
    <glyph glyph-name="oacute" unicode="&#xf3;" horiz-adv-x="672" 
d="M600 477v-477h-53v197l-143 -131l-39 32l149 121l-3 1l-3 2l-4 1l-3 2q-15 8 -33 12l-36 4l-28 -2l-32 -6l-25 -7l-11 -4l-25 46l41 7l44 7l32 2h12l5 -1h6q7 -1 9 -2l7 -1l-14 25l-10 15q-38 38 -103 38l-22 -2q-14 0 -26 -4q-4 -1 -6 -2l-7 -1q0 -47 -24 -80
q-10 -14 -27 -23.5t-36 -9.5l-11 1l-13 2l62 -94l27 -35l48 -55l21 -21l-41 -34q-18 7 -48 51l-122 177l-28 46l-18 31l-18 32l43 28l29 -56q18 -35 59 -35l22 3q10 3 13 10l7 15l2 21l-1 15v137h-225v41h672v-39h-72zM547 475h-270v-84q9 0 15 1t10 3l27 4l19 2
q86 0 138 -69l16 -29l18 -40l27 -17v229z" />
    <glyph glyph-name="ocircumflex" unicode="&#xf4;" horiz-adv-x="637" 
d="M357 475v-127l24 17l32 15l36 9l36 4q69 0 93 -47q8 -17 8 -40q0 -39 -26 -75l-15 -15l-37 26l5 3l4 5q22 28 22 56q0 11 -5 20q-4 17 -31 28l-21 4q-26 0 -78 -32l-21 -13l-26 -19v-101l25 12l14 6l37 13l30 5q56 0 84 -28q31 -24 31 -73q0 -26 -12 -51q-14 -30 -36 -46
l-20 -15l-28 -16l-27 35l21 12l15 11q36 26 36 70q0 18 -5 29q-5 20 -34 27l-27 4q-11 0 -31 -6l-37 -18l-16 -10l-20 -14v-140h-52v102q-5 -7 -14 -12l-31 -16q-21 -11 -43 -17.5t-37 -6.5q-22 0 -45 8q-41 14 -60 57q-9 20 -9 42q0 18 12 41q1 3 9 13l12 12l12 8l-19 14
l-13 18l-8 19l-2 20q0 21 10 41q17 38 62 56q26 10 45 8l23 -2l27 -6l6 -2l8 -3l20 -44l-16 3l-11 3l-30 6l-20 2q-42 0 -67 -43q-3 -7 -5 -24q0 -28 35 -44l15 3l16 1l18 -1l52 -6l16 -1l20 -46l-11 2l-27 6l-31 5l-21 2q-20 0 -32 -5q-31 -5 -45 -32q-7 -12 -7 -28
q0 -28 17 -43q7 -8 21 -13l31 -4q38 0 79 29l28 20l10 13v320h-305v41h633v-41h-276z" />
    <glyph glyph-name="otilde" unicode="&#xf5;" horiz-adv-x="6" 
d="M-95 516l-172 226l47 26l160 -252h-35zM-181 516l-197 132l37 41l185 -173h-25zM-26 642v56h61v-56h-61zM29 751l-7 3l-20 4l-19 2q-30 0 -47.5 -20.5t-17.5 -50.5q0 -23 8.5 -47.5t23.5 -44.5l14 -19l19 -23l-38 1q-9 6 -14 14l-23 36q-3 4 -13 27l-13 28q-9 27 -9 50
q0 42 32.5 66t76.5 24l28 -3l27 -9v-40z" />
    <glyph glyph-name="odieresis" unicode="&#xf6;" horiz-adv-x="492" 
d="M178 -23l1 -4l-2 -4l-5 -5q-11 0 -17 2l-34 11q-7 3 -14 5q-14 6 -33 19v5l3 7l6 7l33 16l-35 77l-10 11l-13 4l-12 -3q-5 -1 -11 -7l-8 -10l-2 -12l1 -6v-4l6 -9l3 -4l4 -3l3 -3l5 -4l-27 -12l-4 2l-2 3l-6 7l-4 7l-4 12l-1 12q-2 20 19 41q18 15 46 18l13 -2l13 -6
l11 -9l9 -13l34 -73l116 61q-27 0 -75 9q-9 1 -21 7q-96 36 -96 140q0 52 27.5 85.5t72.5 33.5l162 1v88h-330v41h490v-41h-107v-127h-195q-67 0 -67 -81q0 -78 88 -114q26 -8 55 -8l10 1l15 2l18 3l-1 9q0 8 5 18q15 55 54 55q32 0 42 -29l3 -18q0 -24 -14 -46
q-8 -12 -19 -19q-7 -3 -22 -5l2 -13l7 -35l7 -22l12 -29l17 -27l10 -14l10 -11h-59l-18 41l-12 29q-9 22 -13 39l-4 36l-159 -84z" />
    <glyph glyph-name="divide" unicode="&#xf7;" horiz-adv-x="371" 
d="M457 198h-7l-8 -1h-6l-14 -2h-28q-8 0 -12 2l-6 1q-5 1 -6 2l-7 2l-6 4v-28q0 -51 -39 -85q-50 -43 -91 -43l46 -29l53 -23l-31 -39l-78 48l-18 13l-16 13l-9 9l-24 1h-34q-29 0 -46 23q-5 9 -7 27l3 15l9 15l13 9l16 4q10 0 15.5 -1t14.5 -6l14 -8l15 -11l10 -11l13 -16
l34 7q18 4 25 8q60 27 60 87q0 12 -2 15l-6 10l-9 6l-12 2l-17 -2l-46 -12l-14 -2l-22 3q-21 6 -45 26l-22 23q-44 46 -44 89q0 25 21 38l14 5l18 2l149 1v86h-268v41h375v-41h-55v-127h-191l-7 -5l-2 -5l1 -10l5 -11l10 -17l18 -22l12 -13l13 -8l13 -4l17 -1l16 1
q16 1 27 4l26 4l17 2q18 0 31 -9l16 -11l10 -4l26 -8l25 -2l28 3q9 2 25 10l4 2l5 5v-50z" />
    <glyph glyph-name="oslash" unicode="&#xf8;" horiz-adv-x="203" 
d="M244 -182q-101 0 -129 68q-11 25 -11 53v209q0 34 -19 68t-52 53l10 8l9 6l18 15l12 15l8 15l7 20l5 20l2 16v210q0 22 9 46q18 48 58 67q21 10 43 10l13 -2l17 -3l82 1v-31h-80q-20 0 -39 -8q-38 -15 -54 -48q-7 -18 -7 -35l-2 -223q0 -10 -4 -23q-1 -8 -8 -25l-11 -18
l-53 -32l10 -8l8 -4q11 -5 18 -14l13 -11l4 -7l6 -8l9 -25l7 -27l3 -21v-204q0 -42 27 -63q20 -16 51 -20q7 -1 22 -1h80v-39h-82z" />
    <glyph glyph-name="ugrave" unicode="&#xf9;" horiz-adv-x="686" 
d="M563 475h-188v-129h-238q-14 0 -17 -17q0 -22 17 -41l16 -18q4 -3 13 -5l234 1v-127h163v336zM124 232l-18 19l-12 17q-15 22 -22.5 40t-7.5 37l3 18q3 7 11 14l15 8l18 3l211 1v86h-322v41h688v-41h-73v-475h-52v100h-163v-55l-1 -11q-1 -5 -2 -6l-8 -6l-10 -2
q-18 0 -57 40q-37 35 -41 58l1 8l5 6l8 3l12 3l39 1v84h-174q-16 0 -29 4h-5q-5 1 -6 2z" />
    <glyph glyph-name="OE" unicode="&#x152;" horiz-adv-x="438" 
d="M256 67q-67 0 -124.5 46t-57.5 115q0 52 28.5 94t76.5 62q32 13 63 13q69 0 121.5 -49t52.5 -120q0 -66 -44.5 -113.5t-115.5 -47.5zM268 351q-58 0 -100.5 -46.5t-42.5 -108.5q0 -19 9 -36q6 -12 23 -28q13 -10 34 -20q18 -6 39 -6q39 0 75 28q33 25 51 64q13 27 13 57
q0 41 -27.5 68.5t-73.5 27.5z" />
    <glyph glyph-name="oe" unicode="&#x153;" 
 />
    <glyph glyph-name="Scaron" unicode="&#x160;" horiz-adv-x="447" 
d="M435 -26q-1 -5 -8 -18l-11 -9l-18 -11l-25 25q11 2 16 5l11 7q4 2 7 10l3 15l-6 8l-13 7l-20 5l-29 2h-26q-58 0 -101 13q-5 2 -29 13q-77 37 -77 103v13l1 9l2 10l5 13l12 30q5 13 16 30l7 11l10 13l-94 -3l-11 51h336l9 -51h-142q-14 0 -34 -12q-36 -17 -63 -71
q-9 -18 -9 -37q0 -46 37 -66q18 -10 40 -16l52 -4q27 -1 76 -6q73 -13 79 -65z" />
    <glyph glyph-name="scaron" unicode="&#x161;" 
 />
    <glyph glyph-name="Ydieresis" unicode="&#x178;" horiz-adv-x="348" 
d="M0 475v41h393v-41h-393zM258 328q-34 0 -64 -25t-30 -64q0 -57 63 -130l26 -30l38 -37l-31 -38l-42 44l-30 36q-73 88 -73 155q0 29 13 49q2 4 9 14l25 25l-141 1v39h418v-39h-181z" />
    <glyph glyph-name="florin" unicode="&#x192;" horiz-adv-x="355" 
d="M288 63l-24 -36l-24 -33l-56 37l3 1l3 2l5 3l21 16l14 16q15 24 26 57q14 40 17 77l3 33l3 44l-15 -5l-11 -3l-24 -7l-10 -2q-39 0 -83 34.5t-44 88.5q0 44 34 77.5t77 33.5q69 0 104 -72q18 -38 25 -103q2 -20 2 -44q0 -127 -46 -215zM276 384q-1 18 -7 31
q-12 41 -50 41q-27 0 -52.5 -26t-25.5 -58q0 -30 20 -46l22 -11l28 -4q42 0 68 32z" />
    <glyph glyph-name="circumflex" unicode="&#x2c6;" horiz-adv-x="471" 
d="M396 -119l-11 16l-7 11l-18 29l-42 77l-7 18l-11 -3l-10 -3q-8 0 -12 -2h-10q-56 0 -113 60q-26 28 -42 60q-13 27 -13 62q0 44 28 78l7 6l8 8l-21 24l-18 30l-12 31l-4 30q0 46 36 70q12 6 26 6l155 1l23 -47h-148q-8 0 -18 -4.5t-16 -13.5l-10 -20q-3 -9 -3 -23
q0 -13 7 -24l16 -26l8 -10l12 -12l133 1l25 -49h-127q-24 0 -39 -27l-11 -27l-3 -27q0 -64 57 -96q19 -7 36 -7l24 4l-3 2l-1 2l-4 11l-1 13q-3 35 34 50l20 4q40 0 53 -33q4 -12 4 -25q0 -14 -3.5 -24t-13.5 -21l-12 -14l-10 -7l22 -35l26 -36l27 -35l27 -28z" />
    <glyph glyph-name="tilde" unicode="&#x2dc;" horiz-adv-x="492" 
d="M178 -23l1 -4l-2 -4l-5 -5q-11 0 -17 2l-34 11q-7 3 -14 5q-14 6 -33 19v5l3 7l6 7l33 16l-35 77l-10 11l-13 4l-12 -3q-5 -1 -11 -7l-8 -10l-2 -12l1 -6v-4l6 -9l3 -4l4 -3l3 -3l5 -4l-27 -12l-4 2l-2 3l-6 7l-4 7l-4 12l-1 12q-2 20 19 41q18 15 46 18l13 -2l13 -6
l11 -9l9 -13l34 -73l116 61q-27 0 -75 9q-9 1 -21 7q-96 36 -96 140q0 52 27.5 85.5t72.5 33.5l162 1v88h-330v41h490v-41h-107v-127h-195q-67 0 -67 -81q0 -78 88 -114q26 -8 55 -8l10 1l15 2l18 3l-1 9q0 8 5 18q15 55 54 55q32 0 42 -29l3 -18q0 -24 -14 -46
q-8 -12 -19 -19q-7 -3 -22 -5l2 -13l7 -35l7 -22l12 -29l17 -27l10 -14l10 -11h-59l-18 41l-12 29q-9 22 -13 39l-4 36l-159 -84z" />
    <glyph glyph-name="endash" unicode="&#x2013;" horiz-adv-x="492" 
d="M393 475v-135h-184q-26 0 -50 -24l-16 -25q-3 -8 -5 -27q0 -92 87 -124l36 -8l52 -4q-1 5 -2 6v5q0 10 -2 15l-1 11q0 15 2 22l9 20q12 19 42 19q10 0 18 -5q17 -6 27 -30l4 -20q0 -33 -19 -50l-8 -7l-12 -8l25 -55l17 -29l17 -23l7 -8l8 -11h-66l-27 53l-28 59l-8 -2h-7
q-78 0 -130 25q-48 23 -69.5 58.5t-21.5 89.5q0 45 29 82t71 37l148 1v92h-336v41h502v-41h-109zM449 -224l-14 -7l-21 -7l-20 -6l-21 -3l-21 -1q-21 -1 -48 8q-53 18 -75 58q-12 23 -12 48q0 50 28 78q15 15 35.5 23t40.5 8h84v-41h-71q-26 0 -44 -19q-11 -10 -16 -20
l-4 -25q0 -37 28.5 -57t61.5 -20q16 0 23 2q12 1 23 7l22 12q10 5 12 11l27 -39z" />
    <glyph glyph-name="emdash" unicode="&#x2014;" horiz-adv-x="637" 
d="M357 475v-151l18 17l12 10q30 25 70 25q56 0 98 -38q39 -35 39 -91q0 -58 -52 -122l-22 -27l-30 -33l-43 33q7 2 16 11q44 44 65 94q11 27 11 48q0 28 -10 49q-18 35 -66 35q-41 0 -76 -44q-13 -17 -21.5 -38.5t-8.5 -38.5v-214h-52v148q-37 -37 -93 -37q-57 0 -100.5 39
t-43.5 99t41 97q30 27 70 36q13 3 27 3l27 -3q18 -4 27 -8v-42l-24 8l-22 3q-36 0 -64 -26q-9 -9 -20 -30q-7 -18 -7 -36q0 -43 25 -71q12 -15 29 -23t34 -8q36 0 73 37q21 21 21 40v249h-305v41h635v-41h-278zM403 -199l-14 -7q-45 -17 -82 -17q-27 0 -48 8q-50 14 -76 61
q-11 20 -11 47q0 70 62 100q21 7 41 7h82v-39h-68q-26 0 -44 -18q-10 -10 -16 -22l-4 -25q0 -18 7 -31q7 -17 34 -33q20 -11 50 -11q46 0 79 29l25 -39z" />
    <glyph glyph-name="quoteleft" unicode="&#x2018;" 
 />
    <glyph glyph-name="quoteright" unicode="&#x2019;" horiz-adv-x="371" 
d="M297 475q14 -14 21 -27l16 -29l9 -31l4 -32q0 -53 -32 -101.5t-80 -69.5q-33 -14 -71 -14l166 -138l-35 -35l-240 203l35 35l33 -27l6 -2h6l26 1q30 4 56 18l31 21l24 25l16 27l5 21l2 29l-15 -13l-12 -9q-16 -12 -34 -18q-9 -3 -31 -5q-48 0 -80 31q-17 15 -26.5 34.5
t-9.5 40.5q0 32 28 64l-115 1v41h369v-41h-72zM280 422q-3 10 -8 16q-25 38 -67 38q-17 0 -27 -5q-23 -6 -33 -33l-4 -23q0 -30 19 -49t49 -19q34 0 61 27l8 11l11 16z" />
    <glyph glyph-name="quotesinglbase" unicode="&#x201a;" horiz-adv-x="215" 
d="M141 475v-475h-53v475h-98v41h248v-41h-97zM116 588q-31 -11 -64 -11q-70 0 -109 38.5t-50 102.5l52 1q0 -46 33 -77q13 -10 34 -18.5t41 -8.5q47 0 77 28.5t30 74.5l52 1q-10 -102 -96 -131z" />
    <glyph glyph-name="quotedblleft" unicode="&#x201c;" horiz-adv-x="494" 
d="M201 250v-91l-1 -6l-8 -7l-10 -2q-10 0 -26 13q-26 19 -44 40l-38 45q-11 17 -13 27l3 8l8 8l9 5l7 2l60 1v140q0 19 -13 31.5t-32 12.5q-9 0 -20 -4l-17 -9l-11 -16l-4 -21l1 -14l5 -15l2 -7l5 -9l-50 1l-4 7l-1 6l-4 14l-1 13q-3 43 28 68t73 25q68 0 89 -51
q7 -18 7 -37v-135h157v182h-98v41h248v-41h-97v-475h-53v250h-157z" />
    <glyph glyph-name="quotedblright" unicode="&#x201d;" 
 />
    <glyph glyph-name="quotedblbase" unicode="&#x201e;" horiz-adv-x="438" 
d="M359 -39l-34 45l-28 43l-28 48l-21 48l-28 -1l-43 3q-41 7 -59 39q-9 15 -9 38q0 25 17 36l19 12l23 4q34 0 58 -33l10 -14l12 -19l18 7l14 7q72 36 72 105q0 30 -11 51q-20 52 -98 64q-13 2 -28 2q-34 0 -69 -9q-23 -6 -48 -24l-37 60l25 6l42 9l43 7l32 2q34 2 71 -13
q74 -33 105 -102q14 -34 14 -69q0 -54 -35 -99q-17 -21 -38 -37q-17 -13 -41 -22l23 -48q10 -21 28 -44l33 -42l39 -39z" />
    <glyph glyph-name="dagger" unicode="&#x2020;" horiz-adv-x="426" 
d="M384 365q-13 -18 -47 -51q-50 -48 -66 -53q16 -7 29 -21l32 -34q11 -12 21 -35q4 -12 6 -27q0 -30 -9 -53q-7 -19 -24 -33q-13 -13 -36 -23q-26 -7 -44 -7q-34 0 -67 24t-48 57q-10 22 -10 48q0 21 11 39q14 23 34 45l19 17l26 22l-39 34l-27 26q-65 62 -67 95l37 67
l47 -31l-14 -10l-13 -11l-14 -17l-4 -14q0 -30 55 -80l22 -20l33 -25l36 27l26 21q28 23 48 47q13 15 15 28q0 31 -13 50l-5 5l-12 9l16 17l31 -26q20 -17 29 -50q2 -8 2 -19q0 -16 -16 -38zM254 252q-1 -1 -2 -1q-9 -5 -14 -10l-31 -30q-30 -29 -40 -55q-4 -10 -5 -22
q0 -50 34 -69q8 -3 25 -5q16 0 33 8q37 18 56 58q8 17 8 35z" />
    <glyph glyph-name="daggerdbl" unicode="&#x2021;" horiz-adv-x="426" 
d="M373 -102l-139 88l-6 -8l-5 -6q-8 -6 -20 -11l-23 -4q-25 0 -36 10t-11 31l2 13l8 13q5 6 12 9l15 3l41 -9l51 153l-4 -3l-4 -1l-8 -1h-16q-60 0 -100 64q-30 46 -39 105q-3 19 -3 38q0 25 5 39q6 25 15 41l21 38l62 -34l-15 -19l-14 -17q-7 -8 -11 -17t-9 -22
q-7 -20 -7 -37v-38q2 -9 4 -21q9 -46 40 -62q20 -8 34 -7l17 1l19 6l18 6l10 6v16q4 14 17 45q21 39 54 39l13 -3q7 -3 9 -8l5 -18l2 -28q3 -46 -60 -90q-5 -4 -12 -8l-20 -7l-43 -177l147 -76z" />
    <glyph glyph-name="bullet" unicode="&#x2022;" 
 />
    <glyph glyph-name="ellipsis" unicode="&#x2026;" horiz-adv-x="402" 
d="M336 -107l-22 27l-23 29l-16 22l-26 41l-14 21l-5 11l-28 1l-39 1q-34 5 -53 29q-8 14 -8 35q0 20 15 33l16 10l19 4q20 0 53 -24l25 -25q7 0 17 5l26 16q36 22 36 54q0 11 -4 22l-9 25l-11 20l-6 7l-109 1l-37 51h121l17 8l13 9q26 18 30 58q0 32 -21 45q-15 8 -29 9
l-39 4l-31 -2q-20 -1 -37 -4l-31 -5q-11 -2 -13 -4l-29 63h158q41 0 77 -36q31 -38 31 -84q0 -41 -23 -72l-10 -11l-14 -13q21 -15 34 -43q8 -17 9 -29l3 -28q0 -46 -24 -78.5t-65 -41.5l6 -11l11 -16l15 -18l17 -19l16 -19l20 -21l18 -17l10 -9z" />
    <glyph glyph-name="perthousand" unicode="&#x2030;" horiz-adv-x="471" 
d="M433 192q-30 -101 -104 -140q-39 -20 -85 -20q-120 0 -172 141q-18 46 -24 87l-11 75l-3 77v37l1 10q0 7 2 11l41 14l-2 -3v-5l-2 -9l-1 -10q0 -17 -2 -27v-27q0 -163 50 -249q41 -71 111 -71q56 0 104 48l17 21l22 35q-44 0 -92 33q-52 35 -73 80q-15 31 -15 68
q0 46 31.5 80.5t78.5 34.5q95 0 132 -122q10 -33 10 -71q0 -51 -14 -98zM397 345q-2 15 -14.5 37.5t-28 33.5t-36.5 11q-33 0 -49 -22q-9 -11 -15 -25l-4 -29q0 -69 58 -103q41 -24 85 -24l9 85q0 16 -5 36z" />
    <glyph glyph-name="guilsinglleft" unicode="&#x2039;" horiz-adv-x="447" 
d="M436 -33q-1 -7 -7 -14l-10 -7l-15 -10l-19 15l14 8l6 3q4 3 7 10l2 14q-1 5 -2 6l-7 5l-11 5l-14 5q-11 4 -36 9l-43 3q-23 1 -46 3t-46 9q-52 16 -74 65q-16 35 -16 91q0 37 18 60l7 9l12 11l-88 -1l-13 52h117l-7 3l-6 5l-8 8q-9 11 -15.5 29t-6.5 36q0 57 40 76
q18 9 40 13l53 4h60l8 -49l-18 1q-10 1 -13 2l-32 3l-25 1q-34 1 -59 -21.5t-25 -54.5q0 -17 13 -32q4 -6 9 -10l9 -7l14 -8l190 1l9 -50h-158q-23 0 -57 -41q-25 -30 -31 -56q-2 -9 -2 -20q0 -50 28 -65q13 -7 30 -10l42 -3l35 1q47 1 70 -8q53 -12 72 -47q8 -16 8 -35z
" />
    <glyph glyph-name="guilsinglright" unicode="&#x203a;" horiz-adv-x="6" 
d="M-95 516l-172 226l47 26l160 -252h-35zM-181 516l-197 132l37 41l185 -173h-25zM-26 642v56h61v-56h-61zM29 751l-7 3l-20 4l-19 2q-30 0 -47.5 -20.5t-17.5 -50.5q0 -23 8.5 -47.5t23.5 -44.5l14 -19l19 -23l-38 1q-9 6 -14 14l-23 36q-3 4 -13 27l-13 28q-9 27 -9 50
q0 42 32.5 66t76.5 24l28 -3l27 -9v-40z" />
    <glyph glyph-name="trademark" unicode="&#x2122;" horiz-adv-x="290" 
d="M0 516h404v-39l-404 -2v41zM195 123l30 -51l1 -9l1 -5q0 -12 -6 -15l-8 -2l-10 -1l-14 1q-11 1 -18 4l-23 6l-27 12l-18 9q-9 6 -13 11l-7 10l-2 11q0 18 21 34l4 3l7 4l242 103l-18 20l-14 16q-19 22 -36 34q-17 16 -29 21l-15 6l-16 4l-18 2l-16 1l-24 -1l-22 -3l-9 -2
l-11 -3l4 -72l-3 -11l-3 -6l-7 -6l-8 -2l-10 2l-13 8l-15 13l-17 18l-28 36l-6 10l-2 10q0 12 14 23q20 10 43 17l59 10l64 4q38 2 63 -8q14 -6 28 -20q24 -20 43 -43l20 -24l28 -32v-47z" />
    <glyph glyph-name="glyph212" horiz-adv-x="379" 
 />
    <glyph glyph-name="glyph213" horiz-adv-x="379" 
 />
  </font>
</defs>
</svg>
